<svg width="24" height="24" viewBox="0 0 24 24" fill="none" xmlns="http://www.w3.org/2000/svg">
<g id="ic_connection">
<path id="Vector" d="M17.2567 9.56925C17.4052 9.7425 17.616 9.8325 17.8275 9.8325C18 9.8325 18.1732 9.77325 18.3142 9.65325C18.6292 9.384 18.6667 8.91075 18.3975 8.59575C16.7985 6.72225 14.4667 5.6475 12 5.6475C9.6585 5.6475 7.4025 6.6345 5.8095 8.35575C5.52825 8.6595 5.54625 9.13425 5.8515 9.4155C6.1545 9.69675 6.62925 9.67875 6.91125 9.37425C8.22075 7.959 10.0755 7.1475 12 7.1475C14.0272 7.1475 15.9427 8.03025 17.2567 9.56925Z" fill="white"/>
<path id="Vector_2" d="M3.86849 6.55875C4.19249 6.20475 4.50299 5.90775 4.83074 5.63925C6.81524 3.93675 9.36149 3 12 3C14.6385 3 17.184 3.9375 19.1782 5.6475C19.5997 5.997 20.0092 6.4065 20.3962 6.8655C20.544 7.04175 20.7562 7.1325 20.9707 7.1325C21.141 7.1325 21.312 7.07475 21.453 6.95625C21.7702 6.68925 21.8115 6.216 21.5437 5.8995C21.1005 5.37225 20.6265 4.899 20.1465 4.50075C17.8897 2.56575 14.997 1.50075 12.0007 1.50075C9.00449 1.50075 6.11099 2.5665 3.86849 4.4895C3.49799 4.7925 3.13499 5.13825 2.76149 5.547C2.48249 5.85225 2.50349 6.327 2.80874 6.60675C3.11324 6.8865 3.58874 6.8655 3.86849 6.5595V6.55875Z" fill="white"/>
<path id="Vector_3" d="M12 22.0448C12.4148 22.0448 12.75 21.7088 12.75 21.2948V18.2963C14.7578 17.94 16.2893 16.1858 16.2893 14.0775C16.2893 11.7128 14.3655 9.78825 12 9.78825C9.6345 9.78825 7.71075 11.712 7.71075 14.0775C7.71075 16.1865 9.2415 17.9408 11.25 18.2963V21.2948C11.25 21.7088 11.5853 22.0448 12 22.0448ZM9.21075 14.0775C9.21075 12.54 10.4618 11.2883 12 11.2883C13.5383 11.2883 14.7893 12.5393 14.7893 14.0775C14.7893 15.6158 13.5383 16.8668 12 16.8668C10.4618 16.8668 9.21075 15.6158 9.21075 14.0775Z" fill="white"/>
</g>
</svg>
