<svg width="16" height="16" viewBox="0 0 16 16" fill="none" xmlns="http://www.w3.org/2000/svg">
    <path
        d="M2.20978 4.41956H13.7902C14.0804 4.41956 14.3678 4.3624 14.6359 4.25135C14.904 4.1403 15.1476 3.97752 15.3528 3.77233C15.558 3.56713 15.7207 3.32353 15.8318 3.05542C15.9428 2.78732 16 2.49997 16 2.20978C16 1.91959 15.9428 1.63224 15.8318 1.36413C15.7207 1.09603 15.558 0.852426 15.3528 0.647229C15.1476 0.442032 14.904 0.279261 14.6359 0.168209C14.3678 0.0571576 14.0804 -4.3242e-09 13.7902 0H2.20978C1.62371 8.73312e-09 1.06164 0.232815 0.647229 0.647229C0.232815 1.06164 0 1.62371 0 2.20978C0 2.79585 0.232815 3.35791 0.647229 3.77233C1.06164 4.18674 1.62371 4.41956 2.20978 4.41956ZM2.45867 1.25511C2.64756 1.25476 2.83231 1.31045 2.98953 1.41514C3.14676 1.51982 3.2694 1.6688 3.34193 1.84321C3.41446 2.01762 3.43362 2.20963 3.39698 2.39493C3.36035 2.58024 3.26957 2.75051 3.13613 2.8842C3.00268 3.01789 2.83258 3.10899 2.64735 3.14597C2.46211 3.18295 2.27007 3.16415 2.09552 3.09194C1.92098 3.01974 1.77177 2.89738 1.66679 2.74035C1.56181 2.58331 1.50578 2.39867 1.50578 2.20978C1.50578 1.95689 1.60611 1.71434 1.78476 1.53535C1.96341 1.35637 2.20578 1.25558 2.45867 1.25511Z"
        fill="white" />
    <path
        d="M13.7902 5.79004H2.20978C1.62371 5.79004 1.06164 6.02285 0.647229 6.43727C0.232815 6.85168 0 7.41375 0 7.99982C0 8.58589 0.232815 9.14795 0.647229 9.56237C1.06164 9.97678 1.62371 10.2096 2.20978 10.2096H13.7902C14.3763 10.2096 14.9384 9.97678 15.3528 9.56237C15.7672 9.14795 16 8.58589 16 7.99982C16 7.41375 15.7672 6.85168 15.3528 6.43727C14.9384 6.02285 14.3763 5.79004 13.7902 5.79004ZM2.45867 8.95448C2.26985 8.95448 2.08528 8.89849 1.92828 8.79359C1.77129 8.68869 1.64893 8.5396 1.57667 8.36515C1.50441 8.19071 1.48551 7.99876 1.52234 7.81357C1.55918 7.62838 1.6501 7.45828 1.78362 7.32477C1.91713 7.19125 2.08723 7.10033 2.27242 7.06349C2.45761 7.02666 2.64956 7.04556 2.824 7.11782C2.99844 7.19008 3.14754 7.31244 3.25244 7.46943C3.35734 7.62643 3.41333 7.811 3.41333 7.99982C3.41333 8.25301 3.31275 8.49583 3.13372 8.67487C2.95468 8.8539 2.71186 8.95448 2.45867 8.95448Z"
        fill="white" />
    <path
        d="M13.7902 11.5806H2.20978C1.62371 11.5806 1.06164 11.8134 0.647229 12.2278C0.232815 12.6422 0 13.2043 0 13.7903C0.000470812 14.3763 0.233437 14.9381 0.647749 15.3524C1.06206 15.7667 1.62385 15.9997 2.20978 16.0001H13.7902C14.3761 15.9997 14.9379 15.7667 15.3523 15.3524C15.7666 14.9381 15.9995 14.3763 16 13.7903C16 13.5002 15.9428 13.2128 15.8318 12.9447C15.7207 12.6766 15.558 12.433 15.3528 12.2278C15.1476 12.0226 14.904 11.8598 14.6359 11.7488C14.3678 11.6377 14.0804 11.5806 13.7902 11.5806ZM2.45867 14.745C2.26985 14.745 2.08528 14.689 1.92828 14.5841C1.77129 14.4792 1.64893 14.3301 1.57667 14.1557C1.50441 13.9812 1.48551 13.7893 1.52234 13.6041C1.55918 13.4189 1.6501 13.2488 1.78362 13.1153C1.91713 12.9818 2.08723 12.8909 2.27242 12.854C2.45761 12.8172 2.64956 12.8361 2.824 12.9083C2.99844 12.9806 3.14754 13.103 3.25244 13.26C3.35734 13.417 3.41333 13.6015 3.41333 13.7903C3.41333 14.0435 3.31275 14.2864 3.13372 14.4654C2.95468 14.6444 2.71186 14.745 2.45867 14.745Z"
        fill="white" />
</svg>