<svg width="96" height="32" viewBox="0 0 96 32" fill="none" xmlns="http://www.w3.org/2000/svg">
<path d="M42.5398 23.9014C42.1815 23.2888 41.6905 22.8221 41.0666 22.5022C40.4428 22.1824 39.7403 22.0225 38.9593 22.0225C38.2644 22.0225 37.6302 22.1768 37.055 22.4864C36.5864 22.7379 36.1917 23.0672 35.8671 23.4703V22.6248C35.8671 22.4733 35.8241 22.3535 35.7371 22.2666C35.6501 22.1796 35.5304 22.1366 35.3789 22.1366C35.2377 22.1366 35.1207 22.1805 35.0291 22.2666C34.9365 22.3535 34.8906 22.4733 34.8906 22.6248V30.5503C34.8906 30.6915 34.9365 30.8084 35.0291 30.9001C35.1207 30.9927 35.2377 31.0385 35.3789 31.0385C35.5304 31.0385 35.6501 30.9927 35.7371 30.9001C35.8241 30.8084 35.8671 30.6915 35.8671 30.5503V25.5709C35.8671 25.0827 36.0027 24.6431 36.274 24.2531C36.5452 23.8622 36.9138 23.5563 37.3805 23.3337C37.8472 23.1111 38.3729 22.9998 38.9593 22.9998C39.5458 22.9998 40.0902 23.1167 40.5625 23.3496C41.0348 23.5834 41.409 23.9332 41.6858 24.399C41.9627 24.8657 42.1011 25.4568 42.1011 26.1732V30.5512C42.1011 30.6925 42.1469 30.8094 42.2395 30.901C42.3312 30.9936 42.4481 31.0394 42.5894 31.0394C42.7306 31.0394 42.8466 30.9936 42.9392 30.901C43.0308 30.8094 43.0776 30.6925 43.0776 30.5512V26.1732C43.0776 25.2725 42.8989 24.5159 42.5407 23.9033L42.5398 23.9014Z" fill="white"/>
<path d="M52.3333 24.135C51.9854 23.4768 51.5016 22.9601 50.8809 22.585C50.2611 22.21 49.5485 22.0225 48.744 22.0225C47.9395 22.0225 47.2044 22.2184 46.5743 22.6094C45.9432 23.0014 45.4481 23.5368 45.09 24.2165C44.7308 24.8963 44.5518 25.6821 44.5518 26.5738C44.5518 27.4655 44.7421 28.2381 45.1228 28.9235C45.5035 29.6089 46.0286 30.1444 46.6971 30.5307C47.3656 30.917 48.1298 31.1101 48.9896 31.1101C49.5007 31.1101 50.036 31.007 50.5968 30.7998C51.1565 30.5935 51.6104 30.3319 51.9592 30.0168C52.0679 29.9193 52.1195 29.8106 52.1139 29.6905C52.1083 29.5715 52.0454 29.4618 51.9264 29.3642C51.8392 29.2883 51.7332 29.2526 51.6085 29.2583C51.4838 29.2639 51.3769 29.3098 51.2906 29.397C51.0403 29.6361 50.7008 29.8293 50.2705 29.9765C49.841 30.1237 49.4144 30.1969 48.9896 30.1969C48.3155 30.1969 47.7173 30.0421 47.195 29.7318C46.6727 29.4214 46.2648 28.9948 45.9714 28.451C45.7191 27.984 45.5757 27.4561 45.54 26.8682H52.383C52.5246 26.8682 52.638 26.8269 52.7252 26.7463C52.8124 26.6647 52.8556 26.5532 52.8556 26.4116C52.8556 25.5527 52.6811 24.7941 52.3333 24.1359V24.135ZM45.946 24.6816C46.2236 24.1378 46.6043 23.7112 47.0881 23.4008C47.5719 23.0904 48.1242 22.9357 48.744 22.9357C49.3966 22.9357 49.9648 23.0904 50.4486 23.4008C50.9325 23.7112 51.3056 24.1378 51.5663 24.6816C51.7585 25.0829 51.8738 25.5292 51.9123 26.0196H45.5597C45.6141 25.5274 45.7416 25.0811 45.9451 24.6816H45.946Z" fill="white"/>
<path d="M71.363 22.3507C71.2921 22.1996 71.1605 22.123 70.9655 22.123C70.749 22.123 70.5969 22.2201 70.5111 22.4151L68.2577 29.207L66.1275 22.5131C66.0845 22.3946 66.022 22.2994 65.9409 22.2294C65.8597 22.1594 65.7598 22.124 65.6404 22.124C65.521 22.124 65.4183 22.1594 65.3315 22.2294C65.2448 22.3003 65.1851 22.3946 65.1533 22.5131L63.0474 29.3273L60.7539 22.416C60.711 22.319 60.6456 22.2453 60.5589 22.1968C60.4721 22.1482 60.3853 22.124 60.2995 22.124C60.1371 22.124 60.0233 22.1809 59.9589 22.2947C59.8936 22.4086 59.8833 22.584 59.9262 22.8229L62.5566 30.6971C62.5892 30.7941 62.6462 30.8706 62.7273 30.9248C62.8085 30.9789 62.9028 31.0059 63.0119 31.0059C63.109 31.0059 63.1985 30.9817 63.2797 30.9331C63.3609 30.8846 63.4234 30.8062 63.4663 30.698L65.6031 23.8231L67.8173 30.698C67.8387 30.7951 67.8929 30.8716 67.9796 30.9257C68.0664 30.9798 68.1634 31.0069 68.2717 31.0069C68.3911 31.0069 68.491 30.9798 68.5721 30.9257C68.6533 30.8716 68.7102 30.796 68.7429 30.698L71.3564 22.8238C71.432 22.6614 71.4348 22.5047 71.3648 22.3526L71.363 22.3507Z" fill="white"/>
<path d="M76.4311 31.1101C75.564 31.1101 74.7867 30.912 74.098 30.5168C73.4094 30.1216 72.8675 29.5796 72.4722 28.891C72.076 28.2024 71.8789 27.4306 71.8789 26.5747C71.8789 25.7188 72.077 24.9302 72.4722 24.2416C72.8675 23.5539 73.4094 23.012 74.098 22.6158C74.7857 22.2206 75.564 22.0225 76.4311 22.0225C77.2982 22.0225 78.0728 22.2206 78.7558 22.6158C79.4389 23.012 79.978 23.5539 80.3732 24.2416C80.7685 24.9302 80.9666 25.7076 80.9666 26.5747C80.9666 27.4418 80.7685 28.2033 80.3732 28.891C79.9771 29.5796 79.4379 30.1216 78.7558 30.5168C78.0728 30.913 77.2982 31.1101 76.4311 31.1101ZM76.4311 30.2C77.1142 30.2 77.7234 30.0403 78.2606 29.7207C78.797 29.4012 79.2202 28.9676 79.5286 28.4201C79.8378 27.8725 79.992 27.2521 79.992 26.5588C79.992 25.8655 79.8378 25.261 79.5286 24.7134C79.2193 24.1659 78.797 23.7324 78.2606 23.4128C77.7243 23.0933 77.1142 22.9335 76.4311 22.9335C75.7481 22.9335 75.152 23.0933 74.6101 23.4128C74.0681 23.7324 73.6402 24.1659 73.3253 24.7134C73.0104 25.261 72.8534 25.8814 72.8534 26.5747C72.8534 27.268 73.0104 27.8725 73.3253 28.4201C73.6393 28.9676 74.0672 29.4012 74.6101 29.7207C75.152 30.0403 75.7584 30.2 76.4311 30.2Z" fill="white"/>
<path d="M87.1479 22.2695C86.9203 22.1725 86.6012 22.123 86.1897 22.123C85.5832 22.123 85.0317 22.2751 84.5335 22.5775C84.0772 22.8555 83.6984 23.2325 83.397 23.7055V22.7072C83.397 22.556 83.3541 22.4366 83.2673 22.3498C83.1805 22.263 83.0611 22.2201 82.9099 22.2201C82.769 22.2201 82.6524 22.264 82.5609 22.3498C82.4686 22.4366 82.4229 22.556 82.4229 22.7072V30.614C82.4229 30.7549 82.4686 30.8716 82.5609 30.963C82.6524 31.0554 82.769 31.1011 82.9099 31.1011C83.0611 31.1011 83.1805 31.0554 83.2673 30.963C83.3541 30.8716 83.397 30.7549 83.397 30.614V25.6781C83.397 25.1696 83.5164 24.7179 83.7544 24.3223C83.9923 23.9276 84.3226 23.616 84.7443 23.3892C85.1661 23.1625 85.6476 23.0487 86.1897 23.0487C86.3949 23.0487 86.5816 23.0627 86.7495 23.0897C86.9175 23.1168 87.0602 23.114 87.1797 23.0813C87.2991 23.0487 87.3747 22.9516 87.4073 22.7893C87.4615 22.5401 87.3747 22.3675 87.1479 22.2695Z" fill="white"/>
<path d="M95.5537 30.2519L92.008 25.9131L95.4567 22.7836C95.5649 22.6968 95.619 22.5998 95.619 22.4915C95.619 22.3833 95.5705 22.275 95.4725 22.1668C95.3755 22.0586 95.2747 22.0045 95.1721 22.0045C95.0695 22.0045 94.964 22.0474 94.8558 22.1341L89.8228 26.7137V18.7732C89.8228 18.622 89.7798 18.5026 89.6931 18.4158C89.6063 18.329 89.4869 18.2861 89.3357 18.2861C89.1948 18.2861 89.0782 18.329 88.9867 18.4158C88.8944 18.5026 88.8486 18.622 88.8486 18.7732V30.4786C88.8486 30.6195 88.8944 30.7362 88.9867 30.8276C89.0782 30.92 89.1948 30.9657 89.3357 30.9657C89.4869 30.9657 89.6063 30.92 89.6931 30.8276C89.7798 30.7362 89.8228 30.6195 89.8228 30.4786V27.8949L91.3399 26.5177L94.8558 30.8192C94.9426 30.9275 95.0424 30.99 95.1562 31.0058C95.2701 31.0217 95.3811 30.9816 95.4894 30.8836C95.6088 30.7866 95.6704 30.683 95.676 30.5747C95.6816 30.4665 95.6405 30.3583 95.5547 30.25L95.5537 30.2519Z" fill="white"/>
<path d="M58.7278 22.5755C58.6465 22.4943 58.541 22.4532 58.4112 22.4532H56.2578V19.8835C56.2578 19.7324 56.2149 19.6129 56.128 19.5262C56.0412 19.4394 55.9216 19.3965 55.7703 19.3965C55.6293 19.3965 55.5126 19.4394 55.4211 19.5262C55.3286 19.6129 55.2829 19.7324 55.2829 19.8835V22.4532H54.0082C53.8784 22.4532 53.7729 22.4943 53.6916 22.5755C53.6104 22.6567 53.5693 22.7621 53.5693 22.8918C53.5693 23.0215 53.6104 23.1269 53.6916 23.2081C53.7729 23.2893 53.8784 23.3303 54.0082 23.3303H55.2829V28.3717C55.2829 28.9027 55.3726 29.3673 55.5509 29.7676C55.7293 30.1679 55.9786 30.4824 56.298 30.7091C56.6173 30.9368 56.9825 31.0497 57.3943 31.0497H57.7193C57.8705 31.0497 57.9901 31.0039 58.0769 30.9116C58.1638 30.8201 58.2067 30.7035 58.2067 30.5626C58.2067 30.4114 58.1684 30.292 58.0928 30.2053C58.0171 30.1185 57.9191 30.0755 57.8005 30.0755H57.3943C57.0581 30.0755 56.7854 29.916 56.5734 29.5969C56.3624 29.2778 56.2569 28.8691 56.2569 28.3708V23.3294H58.4103C58.5401 23.3294 58.6456 23.2884 58.7269 23.2072C58.8081 23.126 58.8483 23.0205 58.8483 22.8909C58.8483 22.7612 58.8081 22.6557 58.7269 22.5745L58.7278 22.5755Z" fill="white"/>
<path d="M14.5117 3.29934C14.5117 3.78503 14.118 4.17876 13.6323 4.17876C13.1466 4.17876 12.7529 3.78503 12.7529 3.29934C12.7529 2.81365 13.1466 2.41992 13.6323 2.41992C14.118 2.41992 14.5117 2.81365 14.5117 3.29934Z" fill="#37D5C7"/>
<path d="M2.91938 23.4461C2.91938 23.9318 2.52565 24.3255 2.03996 24.3255C1.55427 24.3255 1.16054 23.9318 1.16054 23.4461C1.16054 22.9604 1.55427 22.5666 2.03996 22.5666C2.52565 22.5666 2.91938 22.9604 2.91938 23.4461Z" fill="#37D5C7"/>
<path d="M25.3046 24.3255C25.7903 24.3255 26.184 23.9318 26.184 23.4461C26.184 22.9604 25.7903 22.5666 25.3046 22.5666C24.8189 22.5666 24.4252 22.9604 24.4252 23.4461C24.4252 23.9318 24.8189 24.3255 25.3046 24.3255Z" fill="#37D5C7"/>
<path d="M11.3938 5.05818C11.3938 5.63218 10.9285 6.0975 10.3545 6.0975C9.78048 6.0975 9.31516 5.63218 9.31516 5.05818C9.31516 4.48418 9.78048 4.01887 10.3545 4.01887C10.9285 4.01887 11.3938 4.48418 11.3938 5.05818Z" fill="#37D5C7"/>
<path d="M13.3925 7.93629C13.9665 7.93629 14.4318 7.47097 14.4318 6.89697C14.4318 6.32297 13.9665 5.85766 13.3925 5.85766C12.8185 5.85766 12.3532 6.32297 12.3532 6.89697C12.3532 7.47097 12.8185 7.93629 13.3925 7.93629Z" fill="#37D5C7"/>
<path d="M14.3518 11.5339C14.3518 12.1079 13.8865 12.5732 13.3125 12.5732C12.7385 12.5732 12.2732 12.1079 12.2732 11.5339C12.2732 10.9599 12.7385 10.4946 13.3125 10.4946C13.8865 10.4946 14.3518 10.9599 14.3518 11.5339Z" fill="#37D5C7"/>
<path d="M13.6723 17.7698C14.2463 17.7698 14.7116 17.3045 14.7116 16.7305C14.7116 16.1565 14.2463 15.6912 13.6723 15.6912C13.0983 15.6912 12.633 16.1565 12.633 16.7305C12.633 17.3045 13.0983 17.7698 13.6723 17.7698Z" fill="#37D5C7"/>
<path d="M6.27717 22.007C6.27717 22.581 5.81185 23.0463 5.23785 23.0463C4.66385 23.0463 4.19854 22.581 4.19854 22.007C4.19854 21.433 4.66385 20.9677 5.23785 20.9677C5.81185 20.9677 6.27717 21.433 6.27717 22.007Z" fill="#37D5C7"/>
<path d="M1.96001 20.9677C2.53401 20.9677 2.99933 20.5024 2.99933 19.9284C2.99933 19.3544 2.53401 18.8891 1.96001 18.8891C1.38601 18.8891 0.920698 19.3544 0.920698 19.9284C0.920698 20.5024 1.38601 20.9677 1.96001 20.9677Z" fill="#37D5C7"/>
<path d="M6.27717 25.4447C6.27717 26.0187 5.81185 26.4841 5.23785 26.4841C4.66385 26.4841 4.19854 26.0187 4.19854 25.4447C4.19854 24.8707 4.66385 24.4054 5.23785 24.4054C5.81185 24.4054 6.27717 24.8707 6.27717 25.4447Z" fill="#37D5C7"/>
<path d="M22.3466 22.4067C22.9206 22.4067 23.3859 21.9414 23.3859 21.3674C23.3859 20.7934 22.9206 20.3281 22.3466 20.3281C21.7726 20.3281 21.3073 20.7934 21.3073 21.3674C21.3073 21.9414 21.7726 22.4067 22.3466 22.4067Z" fill="#37D5C7"/>
<path d="M23.226 25.125C23.226 25.6989 22.7607 26.1643 22.1867 26.1643C21.6127 26.1643 21.1474 25.6989 21.1474 25.125C21.1474 24.551 21.6127 24.0856 22.1867 24.0856C22.7607 24.0856 23.226 24.551 23.226 25.125Z" fill="#37D5C7"/>
<path d="M25.4645 20.6879C26.0385 20.6879 26.5038 20.2226 26.5038 19.6486C26.5038 19.0746 26.0385 18.6092 25.4645 18.6092C24.8905 18.6092 24.4252 19.0746 24.4252 19.6486C24.4252 20.2226 24.8905 20.6879 25.4645 20.6879Z" fill="#37D5C7"/>
<path d="M19.3885 18.969C19.3885 19.543 18.9232 20.0083 18.3492 20.0083C17.7752 20.0083 17.3099 19.543 17.3099 18.969C17.3099 18.395 17.7752 17.9297 18.3492 17.9297C18.9232 17.9297 19.3885 18.395 19.3885 18.969Z" fill="#37D5C7"/>
<path d="M16.5504 11.0542C17.2789 11.0542 17.8695 10.4636 17.8695 9.7351C17.8695 9.00656 17.2789 8.41597 16.5504 8.41597C15.8219 8.41597 15.2313 9.00656 15.2313 9.7351C15.2313 10.4636 15.8219 11.0542 16.5504 11.0542Z" fill="#37D5C7"/>
<path d="M11.4737 9.7351C11.4737 10.4636 10.8831 11.0542 10.1546 11.0542C9.42607 11.0542 8.83548 10.4636 8.83548 9.7351C8.83548 9.00656 9.42607 8.41597 10.1546 8.41597C10.8831 8.41597 11.4737 9.00656 11.4737 9.7351Z" fill="#37D5C7"/>
<path d="M6.03732 8.89565C6.9204 8.89565 7.63627 8.17978 7.63627 7.29671C7.63627 6.41363 6.9204 5.69776 6.03732 5.69776C5.15425 5.69776 4.43838 6.41363 4.43838 7.29671C4.43838 8.17978 5.15425 8.89565 6.03732 8.89565Z" fill="#37D5C7"/>
<path d="M3.55896 15.3714C3.55896 16.2545 2.84309 16.9703 1.96001 16.9703C1.07694 16.9703 0.361066 16.2545 0.361066 15.3714C0.361066 14.4883 1.07694 13.7724 1.96001 13.7724C2.84309 13.7724 3.55896 14.4883 3.55896 15.3714Z" fill="#37D5C7"/>
<path d="M22.6664 12.4933C22.6664 12.3638 22.6496 12.2382 22.62 12.1167L24.0047 11.175C24.3341 11.5427 24.8121 11.7738 25.3446 11.7738C26.3383 11.7738 27.1434 10.9687 27.1434 9.97494C27.1434 8.9812 26.3383 8.17613 25.3446 8.17613C24.8665 8.17613 24.4324 8.3632 24.1102 8.667L22.1651 7.54454C22.1779 7.4638 22.1859 7.38145 22.1859 7.29671C22.1859 6.41329 21.4703 5.69776 20.5869 5.69776C19.7035 5.69776 18.988 6.41329 18.988 7.29671C18.988 8.18013 19.7035 8.89565 20.5869 8.89565C21.0314 8.89565 21.4336 8.71417 21.723 8.42157L23.6065 9.50885C23.5666 9.65755 23.545 9.81425 23.545 9.97494C23.545 10.0805 23.5546 10.1828 23.5722 10.2835L22.1067 11.2805C21.8269 11.0406 21.464 10.8943 21.0666 10.8943C20.1832 10.8943 19.4677 11.6099 19.4677 12.4933C19.4677 13.3767 20.1832 14.0922 21.0666 14.0922C21.95 14.0922 22.6656 13.3767 22.6656 12.4933H22.6664Z" fill="#37D5C7"/>
<path d="M27.2234 14.8118C27.2234 15.6948 26.5075 16.4107 25.6244 16.4107C24.7413 16.4107 24.0255 15.6948 24.0255 14.8118C24.0255 13.9287 24.7413 13.2128 25.6244 13.2128C26.5075 13.2128 27.2234 13.9287 27.2234 14.8118Z" fill="#37D5C7"/>
<path d="M18.8009 26.0092V23.9825C19.275 23.7826 19.6084 23.3133 19.6084 22.7665C19.6084 22.0382 19.0176 21.4474 18.2892 21.4474C17.9647 21.4474 17.6673 21.5657 17.437 21.76L14.989 20.8102C14.969 20.0987 14.3878 19.5278 13.6715 19.5278C13.2686 19.5278 12.9088 19.7085 12.6666 19.9931L10.3185 19.3432C10.2529 19.0945 10.0994 18.8819 9.89158 18.7428L10.2489 15.9966C10.8949 15.911 11.3938 15.3594 11.3938 14.6902C11.3938 13.9619 10.803 13.3711 10.0747 13.3711C9.79805 13.3711 9.54221 13.4566 9.33035 13.6013L7.78018 12.7067C7.78977 12.6364 7.79616 12.5652 7.79616 12.4917C7.79616 11.6083 7.08064 10.8927 6.19722 10.8927C5.3138 10.8927 4.59827 11.6083 4.59827 12.4917C4.59827 13.3751 5.3138 14.0906 6.19722 14.0906C6.65292 14.0906 7.06305 13.8988 7.35486 13.5926L8.78431 14.4176C8.76593 14.5056 8.75633 14.5967 8.75633 14.6894C8.75633 15.1251 8.96819 15.5097 9.29358 15.7503L8.91703 18.6468C8.54127 18.8035 8.27745 19.1737 8.27745 19.6062C8.27745 20.1802 8.74274 20.6455 9.31676 20.6455C9.62536 20.6455 9.90198 20.5104 10.0923 20.2961L12.3588 20.9229C12.3995 21.6153 12.972 22.1645 13.6739 22.1645C14.0624 22.1645 14.4102 21.9958 14.6516 21.728L16.9781 22.6306C16.9741 22.6746 16.9717 22.7185 16.9717 22.7641C16.9717 23.3269 17.3251 23.8066 17.8224 23.9961V25.9924C17.1684 26.193 16.6919 26.8014 16.6919 27.521C16.6919 28.4044 17.4074 29.1199 18.2908 29.1199C19.1743 29.1199 19.8898 28.4044 19.8898 27.521C19.8898 26.8174 19.4341 26.221 18.8025 26.0068L18.8009 26.0092Z" fill="#37D5C7"/>
<path d="M15.2712 25.2848C15.2712 26.1679 14.5554 26.8838 13.6723 26.8838C12.7892 26.8838 12.0733 26.1679 12.0733 25.2848C12.0733 24.4018 12.7892 23.6859 13.6723 23.6859C14.5554 23.6859 15.2712 24.4018 15.2712 25.2848Z" fill="#37D5C7"/>
<path d="M9.23522 29.6819C10.1183 29.6819 10.8342 28.9661 10.8342 28.083C10.8342 27.1999 10.1183 26.4841 9.23522 26.4841C8.35214 26.4841 7.63627 27.1999 7.63627 28.083C7.63627 28.9661 8.35214 29.6819 9.23522 29.6819Z" fill="#37D5C7"/>
<path d="M15.4711 30.2016C15.4711 31.1951 14.6657 32.0004 13.6723 32.0004C12.6788 32.0004 11.8735 31.1951 11.8735 30.2016C11.8735 29.2082 12.6788 28.4028 13.6723 28.4028C14.6657 28.4028 15.4711 29.2082 15.4711 30.2016Z" fill="#37D5C7"/>
<path d="M1.99999 11.7738C2.99344 11.7738 3.7988 10.9684 3.7988 9.97494C3.7988 8.98148 2.99344 8.17613 1.99999 8.17613C1.00653 8.17613 0.201172 8.98148 0.201172 9.97494C0.201172 10.9684 1.00653 11.7738 1.99999 11.7738Z" fill="#37D5C7"/>
<path d="M7.39643 17.8098C7.39643 18.5383 6.80583 19.1289 6.0773 19.1289C5.34876 19.1289 4.75817 18.5383 4.75817 17.8098C4.75817 17.0812 5.34876 16.4906 6.0773 16.4906C6.80583 16.4906 7.39643 17.0812 7.39643 17.8098Z" fill="#37D5C7"/>
<path d="M9.27519 24.6453C10.0037 24.6453 10.5943 24.0547 10.5943 23.3261C10.5943 22.5976 10.0037 22.007 9.27519 22.007C8.54665 22.007 7.95606 22.5976 7.95606 23.3261C7.95606 24.0547 8.54665 24.6453 9.27519 24.6453Z" fill="#37D5C7"/>
<path d="M22.8263 17.2501C22.8263 17.9787 22.2357 18.5693 21.5071 18.5693C20.7786 18.5693 20.188 17.9787 20.188 17.2501C20.188 16.5216 20.7786 15.931 21.5071 15.931C22.2357 15.931 22.8263 16.5216 22.8263 17.2501Z" fill="#37D5C7"/>
<path d="M17.19 16.011C17.9185 16.011 18.5091 15.4204 18.5091 14.6918C18.5091 13.9633 17.9185 13.3727 17.19 13.3727C16.4614 13.3727 15.8708 13.9633 15.8708 14.6918C15.8708 15.4204 16.4614 16.011 17.19 16.011Z" fill="#37D5C7"/>
<path d="M17.7896 5.05818C17.7896 5.63218 17.3243 6.0975 16.7503 6.0975C16.1763 6.0975 15.7109 5.63218 15.7109 5.05818C15.7109 4.48418 16.1763 4.01887 16.7503 4.01887C17.3243 4.01887 17.7896 4.48418 17.7896 5.05818Z" fill="#37D5C7"/>
<path fill-rule="evenodd" clip-rule="evenodd" d="M47.9958 15.9439C47.1163 15.4342 46.4185 14.7255 45.9026 13.8252V13.8215C45.3977 12.9163 45.1435 11.8846 45.1336 10.735C45.1238 9.58536 45.3425 8.54135 45.8006 7.63982C46.2699 6.72847 46.9209 6.00627 47.7513 5.47813C48.5866 4.9463 49.5484 4.67977 50.6245 4.66994C51.6858 4.66012 52.6256 4.90086 53.4326 5.40443C54.247 5.89082 54.8796 6.57617 55.3268 7.45313C55.7727 8.33009 55.9975 9.32374 56.0085 10.4279C56.011 10.7178 55.9225 10.9806 55.7248 11.187L55.7186 11.1931L55.7125 11.1992C55.5135 11.3859 55.2617 11.4695 54.9865 11.4719L47.2723 11.5444C47.3521 11.9878 47.4934 12.3919 47.6961 12.7591C48.0351 13.3474 48.4859 13.8056 49.0534 14.1384C49.616 14.4688 50.2671 14.6346 51.0188 14.6273C51.4623 14.6236 51.9069 14.5437 52.3541 14.3865C52.8196 14.2146 53.1722 14.0107 53.424 13.7835L53.4301 13.7773C53.6267 13.609 53.8589 13.5206 54.1144 13.5157C54.3662 13.4973 54.6032 13.5624 54.8022 13.7221L54.8195 13.7368C55.0381 13.9382 55.1806 14.19 55.1867 14.4872C55.2076 14.7869 55.0848 15.0424 54.8624 15.2352C54.3932 15.6491 53.8036 15.9906 53.1009 16.2657L53.096 16.2682C52.3909 16.5298 51.7043 16.6661 51.0373 16.6723C49.9121 16.6833 48.8974 16.4438 48.0007 15.9464L47.9958 15.9439ZM52.3971 7.17923C51.9205 6.86849 51.3407 6.71005 50.6442 6.71619C49.9366 6.72233 49.331 6.8992 48.8163 7.23573C48.298 7.57473 47.8938 8.04269 47.6039 8.64944C47.4664 8.94298 47.3632 9.25986 47.2956 9.60008L53.8871 9.53868C53.8195 9.16898 53.7102 8.8263 53.5567 8.50818C53.2827 7.93583 52.897 7.49612 52.3995 7.18169L52.3959 7.17923H52.3971Z" fill="white"/>
<path d="M60.3572 5.26764H60.3596C61.0486 4.85526 61.8089 4.65153 62.6355 4.65153C63.2705 4.65153 63.801 4.74234 64.199 4.95222C64.4053 5.06145 64.5785 5.21242 64.678 5.41861C64.7799 5.62848 64.791 5.85676 64.7382 6.08381L64.7357 6.09118C64.6694 6.34523 64.5367 6.57474 64.2997 6.6987C64.1118 6.80303 63.8956 6.83248 63.6721 6.81652H63.6696C63.4989 6.80302 63.3012 6.78953 63.0752 6.77602H63.0666C62.3591 6.71098 61.7426 6.78952 61.2096 7.00062H61.2059C60.6851 7.19945 60.2761 7.50382 59.9678 7.91375C59.6792 8.31508 59.5306 8.7962 59.5306 9.37427V15.4716C59.5306 15.7772 59.4446 16.057 59.2395 16.2681C59.0332 16.4792 58.7581 16.5651 58.4584 16.5651C58.1587 16.5651 57.8848 16.4792 57.6785 16.2681C57.4722 16.057 57.3874 15.7772 57.3874 15.4716V5.86535C57.3874 5.55974 57.4722 5.27991 57.6785 5.06881C57.8848 4.85771 58.1599 4.7718 58.4584 4.7718C58.7568 4.7718 59.032 4.85771 59.2395 5.06881C59.4459 5.27991 59.5306 5.55974 59.5306 5.86535V5.90462C59.7812 5.66161 60.0575 5.44806 60.3572 5.26641V5.26764Z" fill="white"/>
<path d="M66.5496 16.2694L66.5398 16.2583C66.3433 16.0386 66.2598 15.7588 66.2598 15.452V10.4887C66.2598 10.1831 66.3445 9.90323 66.5509 9.69213C66.7646 9.47367 67.0421 9.37426 67.3504 9.37426C67.6587 9.37426 67.9105 9.47367 68.1107 9.69213C68.328 9.89955 68.4226 10.1794 68.4226 10.4887V15.452C68.4226 15.7674 68.3256 16.0497 68.1107 16.2681C67.908 16.4756 67.6415 16.5651 67.3504 16.5651C67.0593 16.5651 66.7768 16.478 66.5607 16.2779L66.5496 16.2681V16.2694Z" fill="white"/>
<path fill-rule="evenodd" clip-rule="evenodd" d="M86.8567 15.8901L86.853 15.8876C85.9945 15.3562 85.3104 14.637 84.8068 13.7337L84.8043 13.73C84.3094 12.8218 84.065 11.8019 84.065 10.6789C84.065 9.55589 84.3167 8.5139 84.8264 7.60445L84.8289 7.60076C85.3484 6.69745 86.0522 5.98438 86.939 5.46767C87.8294 4.93379 88.8304 4.66992 89.9333 4.66992C91.0362 4.66992 92.031 4.93379 92.908 5.46767C93.7947 5.98438 94.4924 6.69745 94.9996 7.60199C95.5216 8.51021 95.7869 9.53748 95.8004 10.674V15.4704C95.8004 15.7772 95.6997 16.0521 95.4884 16.2669L95.4835 16.2718L95.4786 16.2767C95.2661 16.4731 95.0008 16.5639 94.7085 16.5639C94.4162 16.5639 94.1509 16.4743 93.9397 16.2767L93.9348 16.2718L93.9286 16.2669C93.7174 16.0521 93.6166 15.7772 93.6166 15.4704V15.0973C93.2961 15.4225 92.9326 15.706 92.5285 15.949H92.526C91.7154 16.4301 90.7942 16.6658 89.7724 16.6658C88.6953 16.6658 87.7213 16.408 86.8567 15.8876V15.8901ZM91.8296 14.0982H91.8321C92.3958 13.7582 92.8355 13.2968 93.1548 12.7077V12.7052C93.4877 12.1038 93.6547 11.4312 93.6547 10.6789C93.6547 9.92654 93.4865 9.2417 93.1573 8.65504L93.1548 8.65012C92.8355 8.06101 92.3958 7.59953 91.8321 7.26202L91.8247 7.25834C91.2794 6.91224 90.6518 6.7355 89.9308 6.7355C89.2099 6.7355 88.597 6.91224 88.0357 7.25957L88.032 7.26202C87.4671 7.60076 87.0188 8.06347 86.6847 8.65504C86.3556 9.24047 86.1873 9.91181 86.1873 10.6789C86.1873 11.446 86.3543 12.1026 86.6859 12.704C87.0188 13.2955 87.4671 13.757 88.032 14.0958C88.5933 14.432 89.2234 14.6026 89.9308 14.6026C90.6383 14.6026 91.2831 14.432 91.8284 14.097L91.8296 14.0982Z" fill="white"/>
<path d="M38.0789 15.8509C38.1747 16.0644 38.3049 16.2448 38.4781 16.3737C38.6561 16.505 38.86 16.5664 39.0811 16.5664C39.3022 16.5664 39.522 16.5075 39.7075 16.3786C39.8905 16.2509 40.0268 16.0681 40.1238 15.8509L44.4974 6.22864C44.6153 5.9844 44.6239 5.72421 44.5294 5.47016C44.4336 5.20014 44.2493 4.99641 43.9963 4.86754L43.9877 4.86386L43.9791 4.86017C43.7212 4.74726 43.451 4.73867 43.1845 4.82827C42.9082 4.9105 42.7067 5.10073 42.5913 5.37074L39.0848 13.2256L35.523 5.35724L35.5181 5.34865C35.3916 5.10932 35.2025 4.93259 34.9556 4.83563C34.6915 4.73254 34.4213 4.75831 34.1683 4.88718C33.9116 5.00991 33.7139 5.20137 33.6132 5.4677C33.5149 5.72789 33.5272 5.993 33.6414 6.24582L38.0777 15.8521L38.0789 15.8509Z" fill="white"/>
<path fill-rule="evenodd" clip-rule="evenodd" d="M71.2991 13.7374C71.8198 14.6407 72.5236 15.3599 73.4079 15.8901L73.4116 15.8926C74.302 16.4118 75.3018 16.6683 76.4035 16.6683C77.5052 16.6683 78.4791 16.4118 79.356 15.8914C80.2428 15.3747 80.9404 14.669 81.4489 13.7767C81.9696 12.8709 82.2423 11.8584 82.2706 10.7489V1.11441C82.2706 0.802671 82.1747 0.521611 81.9537 0.312966C81.7437 0.101866 81.4771 0 81.1787 0C80.8802 0 80.6137 0.100639 80.4037 0.312966C80.1826 0.521611 80.0868 0.802671 80.0868 1.11441V6.24093C79.7196 5.87028 79.2922 5.55609 78.8058 5.29835C78.0382 4.87738 77.1809 4.66996 76.2426 4.66996C75.1642 4.66996 74.189 4.93507 73.3244 5.47018C72.4646 5.98811 71.7805 6.70119 71.2745 7.6045L71.2721 7.60817C70.7771 8.51639 70.5339 9.5363 70.5339 10.6593C70.5339 11.7823 70.7857 12.8243 71.2942 13.7337L71.2966 13.7374H71.2991ZM79.6299 8.65631C79.9615 9.24297 80.1286 9.90817 80.1286 10.6593C80.1286 11.4104 79.9603 12.0965 79.6299 12.6832L79.6275 12.6881C79.3081 13.2784 78.8672 13.7472 78.2998 14.0995C77.7545 14.4333 77.1256 14.6039 76.4035 14.6039C75.6813 14.6039 75.066 14.4345 74.5059 14.0983C73.9385 13.746 73.4902 13.2759 73.1573 12.6832C72.8282 12.0977 72.6599 11.4264 72.6599 10.6593C72.6599 9.89222 72.8282 9.24297 73.1573 8.65631L73.1598 8.65385C73.4926 8.04878 73.9409 7.57995 74.5034 7.24243C75.066 6.90615 75.696 6.73555 76.4035 6.73555C77.1109 6.73555 77.7545 6.90615 78.301 7.2412H78.3035C78.866 7.57995 79.3057 8.04632 79.6262 8.64894L79.6287 8.65631H79.6299Z" fill="white"/>
<path d="M66.5496 8.14572L66.5398 8.13468C66.3433 7.91499 66.2598 7.63516 66.2598 7.32833V6.1145C66.2598 5.8089 66.3445 5.52907 66.5509 5.31797C66.7646 5.09951 67.0421 5.00009 67.3504 5.00009C67.6587 5.00009 67.9105 5.09951 68.1107 5.31797C68.328 5.52539 68.4226 5.80522 68.4226 6.1145V7.32833C68.4226 7.64375 68.3256 7.92603 68.1107 8.14449C67.908 8.35191 67.6415 8.44151 67.3504 8.44151C67.0593 8.44151 66.7768 8.35437 66.5607 8.15431L66.5496 8.14449V8.14572Z" fill="#37D5C7"/>
</svg>
