<svg width="40" height="40" viewBox="0 0 40 40" fill="none" xmlns="http://www.w3.org/2000/svg">
<rect width="40" height="40" rx="8" fill="white" fill-opacity="0.2"/>
<path d="M19.5294 19.5294C21.6085 19.5294 23.2941 17.8439 23.2941 15.7647C23.2941 13.6855 21.6085 12 19.5294 12C17.4502 12 15.7646 13.6855 15.7646 15.7647C15.7646 17.8439 17.4502 19.5294 19.5294 19.5294Z" fill="white"/>
<path d="M27.0588 28.0001V24.2354C27.0588 23.6707 26.7765 23.106 26.3059 22.7295C25.2706 21.8825 23.9529 21.3178 22.6353 20.9413C21.6941 20.6589 20.6588 20.4707 19.5294 20.4707C18.4941 20.4707 17.4588 20.6589 16.4235 20.9413C15.1059 21.3178 13.7882 21.9766 12.7529 22.7295C12.2824 23.106 12 23.6707 12 24.2354V28.0001H27.0588Z" fill="white"/>
</svg>
