<?xml version="1.0" encoding="UTF-8"?>
<svg xmlns="http://www.w3.org/2000/svg" xmlns:xlink="http://www.w3.org/1999/xlink" width="88px" height="88px" viewBox="0 0 88 88" version="1.1">
<g id="surface1">
<path style=" stroke:none;fill-rule:nonzero;fill:rgb(100%,100%,100%);fill-opacity:0.2;" d="M 17.601562 0 L 70.398438 0 C 80.121094 0 88 7.878906 88 17.601562 L 88 70.398438 C 88 80.121094 80.121094 88 70.398438 88 L 17.601562 88 C 7.878906 88 0 80.121094 0 70.398438 L 0 17.601562 C 0 7.878906 7.878906 0 17.601562 0 Z M 17.601562 0 "/>
<path style=" stroke:none;fill-rule:nonzero;fill:rgb(100%,100%,100%);fill-opacity:1;" d="M 42.964844 42.964844 C 47.539062 42.964844 51.246094 39.257812 51.246094 34.683594 C 51.246094 30.109375 47.539062 26.398438 42.964844 26.398438 C 38.390625 26.398438 34.683594 30.109375 34.683594 34.683594 C 34.683594 39.257812 38.390625 42.964844 42.964844 42.964844 Z M 42.964844 42.964844 "/>
<path style=" stroke:none;fill-rule:nonzero;fill:rgb(100%,100%,100%);fill-opacity:1;" d="M 59.53125 61.601562 L 59.53125 53.316406 C 59.53125 52.074219 58.910156 50.832031 57.871094 50.003906 C 55.59375 48.140625 52.695312 46.898438 49.796875 46.070312 C 47.726562 45.449219 45.449219 45.035156 42.964844 45.035156 C 40.6875 45.035156 38.410156 45.449219 36.132812 46.070312 C 33.234375 46.898438 30.335938 48.347656 28.054688 50.003906 C 27.019531 50.832031 26.398438 52.074219 26.398438 53.316406 L 26.398438 61.601562 Z M 59.53125 61.601562 "/>
</g>
</svg>
