<svg width="95" height="120" viewBox="0 0 95 120" fill="none" xmlns="http://www.w3.org/2000/svg">
    <path
        d="M80.095 0.498921L20.6853 34.8047C20.0715 35.2056 19.5603 35.7447 19.1925 36.3788C18.8247 37.013 18.6106 37.7244 18.5674 38.4562V111.048C18.6054 111.783 18.8192 112.498 19.1909 113.134C19.5626 113.769 20.0813 114.306 20.7035 114.699L29.1384 119.501C29.7994 119.829 30.5274 120 31.2654 120C32.0034 120 32.7314 119.829 33.3924 119.501L92.784 85.1405C93.3947 84.7365 93.9037 84.1966 94.2711 83.5632C94.6385 82.9297 94.8544 82.2198 94.9018 81.4891V8.86084C94.8644 8.1277 94.6527 7.41404 94.2844 6.77902C93.9161 6.144 93.4017 5.60591 92.784 5.20935L84.349 0.498921C83.688 0.170768 82.96 0 82.222 0C81.484 0 80.756 0.170768 80.095 0.498921Z"
        fill="#F65773" />
    <path
        d="M33.3924 119.501C32.7291 119.821 32.002 119.988 31.2654 119.988C30.5288 119.988 29.8018 119.821 29.1384 119.501L20.7035 114.699C20.0813 114.306 19.5626 113.769 19.1909 113.134C18.8192 112.498 18.6054 111.783 18.5674 111.048V38.4744C18.5938 37.7027 18.8271 36.9524 19.2429 36.3018L31.8953 43.6047C31.4936 44.262 31.2563 45.0106 31.2563 43.8603V116.434C31.2745 119.501 32.1327 120.213 33.3924 119.501Z"
        fill="#F65773" />
    <path opacity="0.5"
        d="M94.8845 8.47743C94.7202 7.41849 93.8439 7.0351 92.7849 7.6376L33.3934 41.9981C32.7673 42.3916 32.252 42.9383 31.8963 43.5866L19.2256 36.2836C19.5751 35.6669 20.0783 35.1511 20.6862 34.7864L80.096 0.498921C80.757 0.170768 81.485 0 82.223 0C82.961 0 83.689 0.170768 84.35 0.498921L92.7667 5.30064C93.3242 5.65039 93.8012 6.11437 94.1662 6.66196C94.5313 7.20955 94.7761 7.8283 94.8845 8.47743Z"
        fill="white" />
    <path
        d="M12.7616 92.3158C11.4288 91.5125 1.27771 85.7979 0.949078 85.5971C0.698877 85.4471 0.485426 85.243 0.324431 84.9997C0.163436 84.7564 0.0589838 84.4802 0.0187095 84.1913C-0.0215648 83.9024 0.00336936 83.6081 0.0916993 83.3301C0.180029 83.052 0.329492 82.7973 0.529136 82.5846L18.4945 61.8989L31.1834 69.2019L12.3234 89.2851C12.1306 89.5035 11.9876 89.7612 11.9043 90.0404C11.821 90.3196 11.7995 90.6136 11.8412 90.9019C11.8828 91.1903 11.9868 91.4661 12.1457 91.7102C12.3047 91.9544 12.5148 92.161 12.7616 92.3158Z"
        fill="#FFA8A7" />
    <path opacity="0.5"
        d="M12.7616 92.3158C11.4288 91.5125 1.27771 85.7979 0.949078 85.5971C0.698877 85.4471 0.485426 85.243 0.324431 84.9997C0.163436 84.7564 0.0589838 84.4802 0.0187095 84.1913C-0.0215648 83.9024 0.00336936 83.6081 0.0916993 83.3301C0.180029 83.052 0.329492 82.7973 0.529136 82.5846L18.4945 61.8989L31.1834 69.2019L12.3234 89.2851C12.1306 89.5035 11.9876 89.7612 11.9043 90.0404C11.821 90.3196 11.7995 90.6136 11.8412 90.9019C11.8828 91.1903 11.9868 91.4661 12.1457 91.7102C12.3047 91.9544 12.5148 92.161 12.7616 92.3158Z"
        fill="white" />
    <path
        d="M92.7842 7.63747L33.3926 41.998C32.7789 42.3989 32.2677 42.9381 31.8999 43.5722C31.5321 44.2063 31.318 44.9177 31.2748 45.6495V69.1651L12.3966 89.2483C12.097 89.4882 11.8807 89.8163 11.7782 90.1861C11.6758 90.5559 11.6924 90.9485 11.8258 91.3083C11.9592 91.6681 12.2026 91.9767 12.5214 92.1903C12.8401 92.4039 13.2181 92.5116 13.6016 92.4982L31.2565 91.2019V118.186C31.2565 119.537 32.2059 120.012 33.3744 119.41L92.7659 85.0491C93.3767 84.6451 93.8856 84.1052 94.2531 83.4717C94.6205 82.8383 94.8363 82.1284 94.8838 81.3976V8.86072C94.902 7.50966 93.9527 6.96194 92.7842 7.63747Z"
        fill="#FF7991" />
    <path
        d="M81.8327 70.4196L70.3231 61.7266L82.3021 38.8639C82.5669 38.3582 82.7296 37.8053 82.7808 37.2367C82.8319 36.6681 82.7706 36.095 82.6003 35.5502C82.4299 35.0053 82.1539 34.4993 81.7881 34.0611C81.4222 33.6228 80.9736 33.261 80.4679 32.9961C79.9621 32.7313 79.4092 32.5686 78.8406 32.5175C78.272 32.4663 77.6989 32.5277 77.1541 32.698C76.6092 32.8683 76.1032 33.1443 75.665 33.5102C75.2268 33.876 74.8649 34.3246 74.6001 34.8304L63.2991 56.4239L52.9545 48.6001C52.4978 48.2577 51.9782 48.0085 51.4253 47.8668C50.8723 47.7252 50.2969 47.6938 49.7318 47.7745C49.1668 47.8552 48.6232 48.0465 48.132 48.3373C47.6409 48.6281 47.2118 49.0128 46.8693 49.4694C46.5269 49.9261 46.2776 50.4457 46.136 50.9986C45.9943 51.5516 45.963 52.127 46.0437 52.692C46.1244 53.2571 46.3156 53.8007 46.6064 54.2919C46.8972 54.783 47.282 55.2121 47.7386 55.5546L59.2482 64.2476L47.7734 86.1366C47.241 87.1607 47.136 88.3541 47.4814 89.4554C47.8268 90.5568 48.5944 91.4765 49.6163 92.0131C50.2404 92.3333 50.9317 92.5001 51.6331 92.4999C52.4262 92.5043 53.2051 92.2889 53.8833 91.8777C54.5615 91.4665 55.1126 90.8755 55.4754 90.1702L66.2721 69.5503L76.7038 77.3741C77.4549 77.9552 78.3794 78.2674 79.3291 78.2607C80.2384 78.2596 81.1245 77.9732 81.8625 77.4421C82.6005 76.9109 83.1534 76.1616 83.4433 75.2997C83.7331 74.4379 83.7454 73.5068 83.4783 72.6375C83.2112 71.7683 82.6782 71.0048 81.9544 70.4544L81.8327 70.4196Z"
        fill="#FAFAFA" />
</svg>