<svg width="321" height="299" viewBox="0 0 321 299" fill="none" xmlns="http://www.w3.org/2000/svg">
    <path
        d="M261.007 298.026C261.862 298.533 262.827 298.826 263.82 298.882C265.23 299.059 266.662 298.807 267.926 298.157C269.801 297.082 271.282 294.376 271.282 292.101V173.038L264.563 176.919V295.982C264.563 297.601 263.751 298.532 262.582 298.532C262.024 298.491 261.484 298.317 261.007 298.026V298.026Z"
        fill="#1C1C26" />
    <path
        d="M101.557 201.863C101.623 203.104 101.98 204.311 102.6 205.387C103.221 206.463 104.086 207.378 105.126 208.057L261.007 298.026C262.976 299.169 264.576 298.238 264.576 295.963V159.326L254.739 153.651C252.77 152.507 155.676 96.4569 153.714 95.3194L101.557 65.2007V201.863Z"
        fill="#252532" />
    <path
        d="M102.995 67.6569V201.863C103.061 202.853 103.353 203.815 103.848 204.675C104.343 205.535 105.028 206.271 105.851 206.826L261.72 296.826C261.983 296.998 262.287 297.099 262.601 297.119C263.089 297.119 263.157 296.413 263.157 295.988V160.144L254.026 154.901L203.232 125.526L153.001 96.5194L103.001 67.6382L102.995 67.6569ZM101.557 65.2007L153.714 95.3132C155.676 96.4507 252.77 152.501 254.739 153.651L264.576 159.332V295.982C264.576 297.601 263.77 298.532 262.601 298.532C262.036 298.512 261.487 298.343 261.007 298.044L105.145 208.044C104.105 207.366 103.239 206.451 102.619 205.375C101.999 204.298 101.642 203.091 101.576 201.851V65.2007H101.557Z"
        fill="#252532" />
    <path
        d="M271.289 155.457V147.444C271.221 146.203 270.861 144.995 270.239 143.919C269.617 142.843 268.75 141.929 267.708 141.251L111.845 51.2506C109.87 50.1131 106.77 50.0569 104.92 51.1256C103.07 52.1944 101.558 54.9006 101.558 57.1944V65.2006C101.558 67.4819 264.558 159.326 264.558 159.326L271.289 155.457Z"
        fill="#5E49A9" />
    <path
        d="M101.613 56.6131C101.857 54.7381 103.363 54.1131 105.145 55.1256L261.007 145.126C262.058 145.795 262.927 146.714 263.538 147.801L270.238 143.919C269.64 142.837 268.781 141.922 267.738 141.257L111.87 51.2569C109.907 50.1194 106.801 50.0506 104.957 51.1256C104.034 51.7421 103.257 52.5525 102.679 53.5003C102.102 54.448 101.738 55.5103 101.613 56.6131V56.6131Z"
        fill="#8566F2" />
    <path
        d="M101.557 57.1879V65.2004L153.714 95.3129C155.676 96.4504 252.77 152.5 254.739 153.65L264.576 159.332V151.307C264.509 150.068 264.15 148.862 263.53 147.787C262.91 146.712 262.046 145.798 261.007 145.119L105.145 55.1191C103.182 53.9879 101.557 54.9004 101.557 57.1879Z"
        fill="#5E49A9" />
    <path
        d="M242.968 138.906C241.812 138.237 240.874 138.775 240.874 140.112C240.913 140.839 241.124 141.545 241.487 142.175C241.851 142.805 242.358 143.34 242.968 143.737C244.124 144.406 245.062 143.862 245.062 142.531C245.023 141.805 244.813 141.097 244.45 140.467C244.086 139.837 243.578 139.302 242.968 138.906V138.906Z"
        fill="#252532" />
    <path
        d="M250.505 143.25C249.349 142.581 248.411 143.125 248.411 144.456C248.451 145.182 248.661 145.889 249.024 146.519C249.388 147.149 249.895 147.684 250.505 148.081C251.661 148.75 252.599 148.206 252.599 146.875C252.56 146.148 252.351 145.441 251.987 144.811C251.623 144.181 251.115 143.646 250.505 143.25V143.25Z"
        fill="#252532" />
    <path
        d="M258.036 147.593C256.88 146.925 255.942 147.468 255.942 148.8C255.982 149.526 256.192 150.233 256.556 150.863C256.919 151.492 257.427 152.028 258.036 152.425C259.192 153.093 260.13 152.55 260.13 151.218C260.091 150.492 259.88 149.785 259.517 149.155C259.153 148.526 258.646 147.99 258.036 147.593V147.593Z"
        fill="#252532" />
    <path d="M264.576 159.32V176.932L271.295 173.057V155.457L264.576 159.32Z" fill="#E0E0E0" />
    <path d="M264.576 159.32V176.932L271.295 173.057V155.457L264.576 159.32Z" fill="#7755F1" />
    <path
        d="M163.55 101.187C162.55 100.612 162.219 99.7312 161.738 98.0625L160.644 94.275C160.244 92.75 159.832 91.7125 158.825 91.15L115.207 65.9625C114.2 65.3875 113.413 65.3375 112.65 66.5875L111.325 69.0312C110.757 70.0125 110.475 70.5937 109.45 70.0125L163.55 101.187L101.557 65.2007V82.8257L264.576 176.944V159.326L163.55 101.187Z"
        fill="#8566F2" />
    <path opacity="0.3"
        d="M114.436 81.504L117.561 83.3165L116.361 81.0165C116.314 80.9302 116.289 80.8335 116.289 80.7352C116.289 80.637 116.314 80.5403 116.361 80.454C116.455 80.3415 116.617 80.454 116.717 80.6227L118.423 83.8977C118.443 83.9362 118.459 83.9758 118.473 84.0165C118.471 84.031 118.471 84.0457 118.473 84.0602C118.479 84.1163 118.479 84.1729 118.473 84.229C118.48 84.2766 118.48 84.3251 118.473 84.3727C118.473 84.3727 118.473 84.3727 118.473 84.3727C118.464 84.4 118.446 84.4239 118.423 84.4415V84.4415L116.73 85.7915C116.706 85.8087 116.677 85.8181 116.648 85.8181C116.619 85.8181 116.591 85.8087 116.567 85.7915C116.477 85.7347 116.408 85.6487 116.373 85.5477C116.286 85.3352 116.292 85.0977 116.373 85.0165L117.573 84.0915L114.448 82.2852C114.369 82.2203 114.305 82.1382 114.262 82.0451C114.218 81.952 114.197 81.8504 114.198 81.7477C114.186 81.5352 114.298 81.4227 114.436 81.504Z"
        fill="#252532" />
    <path opacity="0.3"
        d="M111.817 79.9918L108.692 78.1793L109.855 77.2606C109.961 77.1793 109.974 76.9418 109.855 76.7231C109.736 76.5043 109.605 76.4043 109.499 76.4856L107.799 77.7918C107.78 77.8123 107.766 77.8355 107.755 77.8606V77.8606C107.747 77.9082 107.747 77.9567 107.755 78.0043C107.749 78.0604 107.749 78.117 107.755 78.1731V78.2106C107.766 78.2535 107.78 78.2953 107.799 78.3356V78.3356L109.542 81.6543C109.58 81.7315 109.638 81.7964 109.711 81.8418C109.737 81.8656 109.77 81.8788 109.805 81.8788C109.84 81.8788 109.873 81.8656 109.899 81.8418C109.947 81.7561 109.973 81.6592 109.973 81.5606C109.973 81.462 109.947 81.3651 109.899 81.2793L108.705 78.9731L111.83 80.7856C111.967 80.8668 112.08 80.7856 112.08 80.5418C112.083 80.4359 112.061 80.3308 112.015 80.2352C111.969 80.1396 111.902 80.0562 111.817 79.9918Z"
        fill="#252532" />
    <path opacity="0.3"
        d="M121.596 83.0567C121.596 82.8692 121.777 82.8942 121.864 83.0942L122.296 84.1505C123.027 84.0692 123.914 84.7755 124.514 86.0255C125.289 87.6755 125.289 89.6192 124.514 90.4005C124.326 90.5769 124.081 90.6816 123.823 90.6964C123.565 90.7113 123.31 90.6353 123.102 90.4817C122.477 90.0621 121.988 89.4691 121.696 88.7755C121.646 88.6925 121.619 88.5974 121.619 88.5005C121.619 88.4035 121.646 88.3084 121.696 88.2255C121.796 88.1255 121.952 88.2255 122.052 88.4317C122.633 89.6817 123.577 90.2067 124.158 89.6442C124.739 89.0817 124.739 87.6317 124.158 86.4005C123.746 85.5317 123.152 85.013 122.633 84.9817L122.952 85.7755C123.039 85.9755 122.952 86.1692 122.833 86.0817L121.583 85.2505C121.533 85.2069 121.493 85.1518 121.468 85.0898C121.443 85.0278 121.433 84.9608 121.439 84.8942L121.596 83.0567Z"
        fill="#252532" />
    <path opacity="0.3"
        d="M155.889 94.0519L154.624 91.5829C154.548 91.4666 154.508 91.3333 154.508 91.1975C154.508 91.0617 154.548 90.9285 154.624 90.8121C154.776 90.6788 155.023 90.8121 155.168 91.1019L156.433 93.5708L157.698 92.4465C157.85 92.319 158.09 92.4465 158.242 92.7362C158.318 92.8526 158.358 92.9859 158.358 93.1217C158.358 93.2575 158.318 93.3907 158.242 93.5071L156.977 94.6256L158.242 97.0945C158.318 97.2109 158.358 97.3442 158.358 97.48C158.358 97.6158 158.318 97.749 158.242 97.8654C158.204 97.8952 158.156 97.9115 158.106 97.9115C158.056 97.9115 158.008 97.8952 157.97 97.8654C157.847 97.7911 157.752 97.6838 157.698 97.5582L156.433 95.0893L155.168 96.2136C155.13 96.2423 155.082 96.258 155.032 96.258C154.983 96.258 154.935 96.2423 154.896 96.2136C154.777 96.1361 154.683 96.0298 154.624 95.9064C154.549 95.791 154.509 95.6587 154.509 95.5239C154.509 95.3892 154.549 95.2569 154.624 95.1414L155.889 94.0519Z"
        fill="#252532" />
    <path
        d="M251.616 163.452V159.971C251.584 159.375 251.411 158.795 251.112 158.278C250.814 157.761 250.397 157.322 249.897 156.996L132.029 88.7956C131.079 88.2456 130.304 88.6893 130.304 89.7893V93.2643C130.338 93.8615 130.512 94.4423 130.812 94.9601C131.111 95.4779 131.528 95.9181 132.029 96.2456L249.885 164.446C250.835 164.996 251.616 164.552 251.616 163.452Z"
        fill="#FAFAFA" />
    <path
        d="M248.673 163.561C248.724 163.571 248.777 163.571 248.829 163.561C248.923 163.515 248.999 163.439 249.045 163.346C249.092 163.252 249.106 163.145 249.085 163.043L248.917 161.63L249.579 161.149C249.637 161.104 249.684 161.046 249.716 160.98C249.747 160.914 249.762 160.841 249.76 160.768C249.764 160.649 249.741 160.531 249.692 160.422C249.644 160.314 249.571 160.218 249.479 160.143L248.467 159.361C248.447 159.339 248.432 159.314 248.423 159.286L247.973 157.805C247.945 157.683 247.882 157.571 247.791 157.486C247.699 157.4 247.584 157.343 247.46 157.324C247.378 157.315 247.295 157.334 247.224 157.377C247.152 157.419 247.097 157.484 247.066 157.561L246.685 158.368L245.835 158.036C245.758 158.004 245.672 157.997 245.59 158.016C245.508 158.035 245.434 158.079 245.379 158.143C245.31 158.245 245.274 158.366 245.274 158.489C245.274 158.613 245.31 158.734 245.379 158.836L246.11 160.211C246.115 160.238 246.115 160.266 246.11 160.293L245.935 161.543C245.925 161.656 245.939 161.771 245.976 161.879C246.014 161.987 246.075 162.085 246.154 162.168C246.204 162.223 246.266 162.266 246.336 162.293C246.405 162.32 246.48 162.331 246.554 162.324L247.379 162.218L248.273 163.361C248.319 163.423 248.38 163.474 248.449 163.509C248.519 163.543 248.595 163.561 248.673 163.561V163.561ZM249.16 160.686L248.498 161.161C248.43 161.219 248.378 161.292 248.348 161.376C248.317 161.459 248.308 161.549 248.323 161.636L248.423 162.555L247.798 161.793C247.748 161.72 247.681 161.662 247.602 161.624C247.523 161.585 247.435 161.568 247.348 161.574L246.523 161.68C246.514 161.65 246.514 161.617 246.523 161.586L246.692 160.336C246.711 160.183 246.681 160.027 246.604 159.893L245.979 158.693L246.635 158.943C246.732 158.983 246.841 158.984 246.939 158.945C247.037 158.907 247.116 158.832 247.16 158.736L247.46 158.111L247.86 159.424C247.902 159.574 247.989 159.707 248.11 159.805L249.123 160.58C249.141 160.611 249.154 160.645 249.16 160.68V160.686Z"
        fill="#E0E0E0" />
    <g opacity="0.2">
        <path opacity="0.2"
            d="M111.345 77.4632C111.469 77.462 111.589 77.4204 111.687 77.3447C111.785 77.2691 111.856 77.1634 111.888 77.0439C111.921 76.9243 111.913 76.7974 111.867 76.6825C111.821 76.5675 111.739 76.4708 111.632 76.407L107.026 73.7507C106.962 73.7137 106.891 73.6897 106.818 73.6801C106.745 73.6705 106.67 73.6754 106.599 73.6945C106.528 73.7137 106.461 73.7467 106.402 73.7917C106.343 73.8368 106.294 73.8929 106.257 73.957C106.182 74.0872 106.162 74.2418 106.201 74.387C106.239 74.5322 106.334 74.6562 106.464 74.732L111.064 77.4007C111.151 77.4451 111.247 77.4666 111.345 77.4632V77.4632Z"
            fill="#5761D7" />
        <path opacity="0.2"
            d="M111.345 80.1257C111.471 80.1269 111.593 80.0863 111.694 80.0102C111.794 79.9342 111.866 79.827 111.899 79.7055C111.932 79.5841 111.924 79.4551 111.875 79.3389C111.827 79.2226 111.742 79.1257 111.632 79.0632L107.026 76.407C106.962 76.37 106.891 76.346 106.818 76.3364C106.745 76.3267 106.67 76.3316 106.599 76.3508C106.528 76.3699 106.461 76.403 106.402 76.448C106.343 76.493 106.294 76.5492 106.257 76.6132C106.182 76.7434 106.162 76.898 106.201 77.0433C106.239 77.1885 106.334 77.3125 106.464 77.3882L111.064 80.0445C111.148 80.0977 111.245 80.1259 111.345 80.1257Z"
            fill="#5761D7" />
        <path opacity="0.2"
            d="M111.345 82.782C111.469 82.7808 111.589 82.7392 111.687 82.6635C111.785 82.5878 111.856 82.4822 111.888 82.3626C111.921 82.2431 111.913 82.1162 111.867 82.0012C111.821 81.8863 111.739 81.7895 111.632 81.7257L107.026 79.0695C106.963 79.0308 106.892 79.0054 106.818 78.9948C106.744 78.9843 106.669 78.9888 106.598 79.008C106.526 79.0273 106.458 79.061 106.4 79.107C106.342 79.153 106.293 79.2104 106.257 79.2757C106.22 79.3397 106.196 79.4104 106.187 79.4837C106.177 79.557 106.182 79.6314 106.201 79.7028C106.22 79.7742 106.253 79.8412 106.298 79.8998C106.343 79.9584 106.4 80.0076 106.464 80.0445L111.064 82.707C111.149 82.7557 111.246 82.7815 111.345 82.782V82.782Z"
            fill="#5761D7" />
    </g>
    <path
        d="M247.324 183.726C247.747 183.733 248.164 183.625 248.53 183.413C248.957 183.126 249.299 182.729 249.519 182.264C249.739 181.798 249.829 181.282 249.78 180.77C249.78 178.27 247.905 175.101 245.567 173.757L141.992 113.945C140.742 113.232 139.592 113.12 138.717 113.626C138.291 113.914 137.95 114.311 137.73 114.777C137.51 115.242 137.42 115.757 137.467 116.27C137.467 118.77 139.342 121.938 141.686 123.282L245.261 183.095C245.882 183.482 246.593 183.699 247.324 183.726V183.726ZM139.93 113.945C140.553 113.971 141.158 114.158 141.686 114.488L245.261 174.301C247.411 175.551 249.161 178.445 249.161 180.77C249.204 181.173 249.139 181.58 248.973 181.95C248.808 182.32 248.547 182.64 248.217 182.876C247.555 183.257 246.586 183.138 245.574 182.551L141.999 122.732C139.842 121.482 138.092 118.588 138.092 116.263C138.049 115.861 138.114 115.455 138.28 115.086C138.446 114.717 138.707 114.398 139.036 114.163C139.309 114.012 139.618 113.937 139.93 113.945V113.945Z"
        fill="#E0E0E0" />
    <path
        d="M240.156 178.513L241.227 178.154C241.278 178.475 241.383 178.775 241.539 179.047C241.641 179.325 241.845 179.549 242.133 179.695C242.421 179.842 242.783 179.906 243.182 179.882C243.443 179.833 243.709 179.729 243.952 179.579C244.194 179.43 244.404 179.242 244.558 179.034C245.4 178.01 245.579 176.384 244.972 175.329C244.87 175.051 244.665 174.828 244.377 174.681C244.089 174.535 243.728 174.47 243.329 174.493C243.105 174.53 242.875 174.615 242.663 174.739C242.378 174.91 242.132 175.13 241.952 175.373C241.412 176.12 241.142 176.908 241.185 177.614L240.104 177.972L240.003 178.031C239.927 178.074 239.862 178.133 239.818 178.198C239.774 178.263 239.753 178.33 239.759 178.391C239.776 178.455 239.826 178.503 239.899 178.525C239.972 178.548 240.063 178.543 240.156 178.513ZM242.547 175.539C242.615 175.428 242.719 175.324 242.843 175.242C242.968 175.16 243.108 175.104 243.245 175.081C243.509 175.086 243.744 175.148 243.929 175.26C244.113 175.372 244.243 175.531 244.306 175.724C244.81 176.601 244.669 178.024 244.006 178.825C243.911 178.953 243.781 179.069 243.631 179.16C243.541 179.213 243.443 179.249 243.347 179.267C243.084 179.26 242.85 179.198 242.665 179.087C242.481 178.975 242.35 178.816 242.285 178.624C241.745 177.768 241.88 176.349 242.547 175.539Z"
        fill="#8566F2" />
    <path
        d="M143.8 131.48L113.5 114.049C112.757 113.618 112.15 113.968 112.15 114.83V138.03C112.176 138.499 112.312 138.956 112.546 139.363C112.781 139.77 113.108 140.116 113.5 140.374L143.8 157.874C144.55 158.305 145.15 157.955 145.15 157.093V133.824C145.125 133.355 144.989 132.898 144.755 132.491C144.52 132.084 144.193 131.738 143.8 131.48V131.48Z"
        fill="#DDDDDD" />
    <path
        d="M143.8 163.731L113.5 146.293C112.757 145.862 112.15 146.212 112.15 147.074V170.274C112.176 170.743 112.312 171.2 112.546 171.607C112.781 172.014 113.108 172.36 113.5 172.618L143.8 190.131C144.55 190.562 145.15 190.212 145.15 189.349V166.068C145.126 165.6 144.99 165.144 144.756 164.737C144.521 164.331 144.194 163.986 143.8 163.731Z"
        fill="#DDDDDD" />
    <path
        d="M143.8 195.848L113.5 178.41C112.757 177.979 112.15 178.329 112.15 179.191V202.391C112.176 202.861 112.312 203.317 112.546 203.724C112.781 204.131 113.108 204.478 113.5 204.735L143.8 222.235C144.55 222.666 145.15 222.316 145.15 221.454V198.185C145.125 197.717 144.989 197.261 144.754 196.855C144.52 196.449 144.193 196.104 143.8 195.848Z"
        fill="#8566F2" />
    <path
        d="M143.8 195.848L113.5 178.41C112.757 177.979 112.15 178.329 112.15 179.191V202.391C112.176 202.861 112.312 203.317 112.546 203.724C112.781 204.131 113.108 204.478 113.5 204.735L143.8 222.235C144.55 222.666 145.15 222.316 145.15 221.454V198.185C145.125 197.717 144.989 197.261 144.754 196.855C144.52 196.449 144.193 196.104 143.8 195.848Z"
        fill="#DDDDDD" />
    <path
        d="M218.265 244.414C218.265 245.226 217.64 245.507 216.896 245.07L181.552 224.67C181.166 224.427 180.842 224.097 180.607 223.706C180.371 223.315 180.23 222.875 180.196 222.42C180.196 221.607 180.821 221.301 181.552 221.732L216.927 242.157C217.312 242.401 217.634 242.733 217.867 243.125C218.099 243.517 218.236 243.959 218.265 244.414V244.414Z"
        fill="#8566F2" />
    <path
        d="M218.265 244.414C218.265 245.226 217.64 245.507 216.896 245.07L181.552 224.67C181.166 224.427 180.842 224.097 180.607 223.706C180.371 223.315 180.23 222.875 180.196 222.42C180.196 221.607 180.821 221.301 181.552 221.732L216.927 242.157C217.312 242.401 217.634 242.733 217.867 243.125C218.099 243.517 218.236 243.959 218.265 244.414V244.414Z"
        fill="#DDDDDD" />
    <path
        d="M175.121 218.957C175.121 219.77 174.496 220.045 173.752 219.582L152.246 207.213C151.86 206.971 151.536 206.641 151.301 206.25C151.067 205.859 150.928 205.418 150.896 204.963C150.896 204.151 151.521 203.845 152.246 204.276L173.759 216.701C174.149 216.941 174.476 217.272 174.713 217.664C174.95 218.057 175.09 218.5 175.121 218.957V218.957Z"
        fill="#8566F2" />
    <path
        d="M175.121 218.957C175.121 219.77 174.496 220.045 173.752 219.582L152.246 207.213C151.86 206.971 151.536 206.641 151.301 206.25C151.067 205.859 150.928 205.418 150.896 204.963C150.896 204.151 151.521 203.845 152.246 204.276L173.759 216.701C174.149 216.941 174.476 217.272 174.713 217.664C174.95 218.057 175.09 218.5 175.121 218.957V218.957Z"
        fill="#DDDDDD" />
    <path
        d="M177.658 223.645C177.741 223.645 177.821 223.612 177.879 223.553C177.938 223.495 177.971 223.415 177.971 223.332V217.47C177.971 217.387 177.938 217.307 177.879 217.249C177.821 217.19 177.741 217.157 177.658 217.157C177.575 217.157 177.496 217.19 177.437 217.249C177.379 217.307 177.346 217.387 177.346 217.47V223.332C177.346 223.415 177.379 223.495 177.437 223.553C177.496 223.612 177.575 223.645 177.658 223.645Z"
        fill="#8566F2" />
    <path
        d="M250.346 268.673C250.449 268.674 250.55 268.64 250.633 268.578C250.715 268.515 250.775 268.427 250.802 268.327C250.829 268.227 250.822 268.121 250.783 268.025C250.743 267.929 250.673 267.85 250.583 267.798L151.402 210.535C151.295 210.48 151.171 210.467 151.055 210.5C150.939 210.532 150.84 210.607 150.777 210.71C150.72 210.817 150.706 210.942 150.739 211.058C150.772 211.175 150.848 211.274 150.952 211.335L250.115 268.61C250.185 268.652 250.265 268.674 250.346 268.673V268.673Z"
        fill="#E0E0E0" />
    <path
        d="M250.346 271.605C250.449 271.606 250.55 271.572 250.633 271.509C250.715 271.447 250.775 271.359 250.802 271.259C250.829 271.159 250.822 271.053 250.783 270.957C250.743 270.861 250.673 270.781 250.583 270.73L151.402 213.473C151.349 213.435 151.289 213.408 151.224 213.394C151.16 213.38 151.094 213.38 151.03 213.394C150.966 213.407 150.905 213.434 150.852 213.473C150.799 213.511 150.754 213.56 150.721 213.617C150.688 213.674 150.668 213.737 150.66 213.802C150.653 213.867 150.66 213.933 150.68 213.995C150.7 214.058 150.733 214.116 150.777 214.164C150.82 214.213 150.874 214.253 150.933 214.28L250.115 271.542C250.185 271.584 250.265 271.605 250.346 271.605V271.605Z"
        fill="#E0E0E0" />
    <path
        d="M250.346 274.555C250.449 274.555 250.55 274.522 250.633 274.459C250.715 274.397 250.775 274.309 250.802 274.209C250.829 274.109 250.822 274.003 250.783 273.907C250.743 273.811 250.673 273.731 250.583 273.68L151.402 216.43C151.296 216.372 151.172 216.357 151.056 216.389C150.939 216.42 150.84 216.495 150.777 216.598C150.722 216.705 150.709 216.829 150.741 216.945C150.774 217.061 150.849 217.161 150.952 217.223L250.115 274.473C250.183 274.522 250.263 274.55 250.346 274.555V274.555Z"
        fill="#E0E0E0" />
    <path
        d="M250.346 277.467C250.428 277.467 250.509 277.446 250.58 277.405C250.651 277.365 250.711 277.306 250.752 277.236C250.812 277.13 250.827 277.005 250.796 276.889C250.764 276.772 250.688 276.672 250.584 276.611L151.402 219.348C151.296 219.29 151.172 219.276 151.056 219.307C150.94 219.339 150.84 219.414 150.777 219.517C150.722 219.624 150.709 219.748 150.741 219.864C150.774 219.98 150.849 220.079 150.952 220.142L250.115 277.404C250.185 277.446 250.265 277.468 250.346 277.467V277.467Z"
        fill="#E0E0E0" />
    <path
        d="M250.346 280.405C250.429 280.404 250.509 280.381 250.581 280.34C250.652 280.298 250.711 280.239 250.752 280.167C250.812 280.062 250.827 279.937 250.796 279.82C250.764 279.703 250.688 279.603 250.584 279.542L151.402 222.28C151.349 222.249 151.29 222.229 151.229 222.221C151.168 222.213 151.106 222.217 151.046 222.233C150.987 222.249 150.931 222.276 150.882 222.314C150.833 222.351 150.792 222.398 150.762 222.451C150.731 222.505 150.711 222.564 150.703 222.625C150.695 222.686 150.699 222.748 150.715 222.807C150.731 222.867 150.758 222.923 150.796 222.971C150.833 223.02 150.88 223.061 150.934 223.092L250.115 280.342C250.186 280.381 250.265 280.402 250.346 280.405V280.405Z"
        fill="#E0E0E0" />
    <path
        d="M218.265 211.958C218.265 212.77 217.64 213.051 216.896 212.614L181.552 192.214C181.166 191.971 180.842 191.641 180.607 191.25C180.371 190.859 180.23 190.419 180.196 189.964C180.196 189.151 180.821 188.845 181.552 189.276L216.927 209.701C217.312 209.945 217.634 210.277 217.867 210.669C218.099 211.061 218.236 211.503 218.265 211.958V211.958Z"
        fill="#8566F2" />
    <path
        d="M218.265 211.958C218.265 212.77 217.64 213.051 216.896 212.614L181.552 192.214C181.166 191.971 180.842 191.641 180.607 191.25C180.371 190.859 180.23 190.419 180.196 189.964C180.196 189.151 180.821 188.845 181.552 189.276L216.927 209.701C217.312 209.945 217.634 210.277 217.867 210.669C218.099 211.061 218.236 211.503 218.265 211.958V211.958Z"
        fill="#DDDDDD" />
    <path
        d="M175.121 186.501C175.121 187.314 174.496 187.589 173.752 187.126L152.246 174.757C151.86 174.515 151.536 174.185 151.301 173.794C151.067 173.403 150.928 172.962 150.896 172.507C150.896 171.695 151.521 171.389 152.246 171.82L173.759 184.245C174.149 184.485 174.476 184.816 174.713 185.208C174.95 185.6 175.09 186.044 175.121 186.501V186.501Z"
        fill="#8566F2" />
    <path
        d="M175.121 186.501C175.121 187.314 174.496 187.589 173.752 187.126L152.246 174.757C151.86 174.515 151.536 174.185 151.301 173.794C151.067 173.403 150.928 172.962 150.896 172.507C150.896 171.695 151.521 171.389 152.246 171.82L173.759 184.245C174.149 184.485 174.476 184.816 174.713 185.208C174.95 185.6 175.09 186.044 175.121 186.501V186.501Z"
        fill="#DDDDDD" />
    <path
        d="M177.658 191.189C177.741 191.189 177.821 191.156 177.879 191.097C177.938 191.039 177.971 190.959 177.971 190.876V185.014C177.971 184.931 177.938 184.851 177.879 184.793C177.821 184.734 177.741 184.701 177.658 184.701C177.575 184.701 177.496 184.734 177.437 184.793C177.379 184.851 177.346 184.931 177.346 185.014V190.876C177.346 190.959 177.379 191.039 177.437 191.097C177.496 191.156 177.575 191.189 177.658 191.189Z"
        fill="#8566F2" />
    <path
        d="M250.346 236.217C250.449 236.218 250.55 236.185 250.633 236.122C250.715 236.059 250.775 235.971 250.802 235.871C250.829 235.771 250.822 235.665 250.783 235.57C250.743 235.474 250.673 235.394 250.583 235.342L151.402 178.08C151.295 178.024 151.171 178.011 151.055 178.044C150.939 178.076 150.84 178.152 150.777 178.255C150.72 178.361 150.706 178.486 150.739 178.603C150.772 178.719 150.848 178.818 150.952 178.88L250.115 236.155C250.185 236.196 250.265 236.218 250.346 236.217V236.217Z"
        fill="#E0E0E0" />
    <path
        d="M250.346 239.149C250.449 239.149 250.55 239.116 250.633 239.053C250.715 238.991 250.775 238.903 250.802 238.803C250.829 238.703 250.822 238.597 250.783 238.501C250.743 238.405 250.673 238.325 250.583 238.274L151.402 181.017C151.349 180.979 151.289 180.952 151.224 180.938C151.16 180.924 151.094 180.924 151.03 180.938C150.966 180.951 150.905 180.978 150.852 181.017C150.799 181.055 150.754 181.104 150.721 181.161C150.688 181.218 150.668 181.281 150.66 181.346C150.653 181.411 150.66 181.477 150.68 181.539C150.7 181.602 150.733 181.659 150.777 181.708C150.82 181.757 150.874 181.797 150.933 181.824L250.115 239.086C250.185 239.128 250.265 239.149 250.346 239.149V239.149Z"
        fill="#E0E0E0" />
    <path
        d="M250.346 242.099C250.449 242.099 250.55 242.066 250.633 242.003C250.715 241.941 250.775 241.853 250.802 241.753C250.829 241.653 250.822 241.547 250.783 241.451C250.743 241.355 250.673 241.275 250.583 241.224L151.402 183.974C151.296 183.916 151.172 183.901 151.056 183.933C150.939 183.964 150.84 184.039 150.777 184.142C150.722 184.249 150.709 184.373 150.741 184.489C150.774 184.605 150.849 184.705 150.952 184.767L250.115 242.017C250.183 242.066 250.263 242.094 250.346 242.099V242.099Z"
        fill="#E0E0E0" />
    <path
        d="M250.346 245.011C250.428 245.011 250.509 244.99 250.58 244.949C250.651 244.909 250.711 244.85 250.752 244.779C250.812 244.674 250.827 244.549 250.796 244.433C250.764 244.316 250.688 244.216 250.584 244.154L151.402 186.892C151.296 186.834 151.172 186.82 151.056 186.851C150.94 186.883 150.84 186.958 150.777 187.061C150.722 187.168 150.709 187.292 150.741 187.408C150.774 187.524 150.849 187.623 150.952 187.686L250.115 244.948C250.185 244.99 250.265 245.012 250.346 245.011V245.011Z"
        fill="#E0E0E0" />
    <path
        d="M250.346 247.948C250.429 247.948 250.509 247.925 250.581 247.884C250.652 247.842 250.711 247.782 250.752 247.711C250.812 247.605 250.827 247.481 250.796 247.364C250.764 247.247 250.688 247.147 250.584 247.086L151.402 189.823C151.349 189.793 151.29 189.773 151.229 189.765C151.168 189.757 151.106 189.761 151.046 189.777C150.987 189.793 150.931 189.82 150.882 189.858C150.833 189.895 150.792 189.942 150.762 189.995C150.731 190.049 150.711 190.108 150.703 190.169C150.695 190.23 150.699 190.292 150.715 190.351C150.731 190.411 150.758 190.467 150.796 190.515C150.833 190.564 150.88 190.605 150.934 190.636L250.115 247.886C250.186 247.925 250.265 247.946 250.346 247.948V247.948Z"
        fill="#E0E0E0" />
    <path
        d="M218.265 179.502C218.265 180.315 217.64 180.596 216.896 180.158L181.552 159.758C181.166 159.515 180.842 159.185 180.607 158.795C180.371 158.404 180.23 157.963 180.196 157.508C180.196 156.696 180.821 156.39 181.552 156.821L216.927 177.246C217.312 177.49 217.634 177.821 217.867 178.213C218.099 178.606 218.236 179.047 218.265 179.502V179.502Z"
        fill="#8566F2" />
    <path
        d="M218.265 179.502C218.265 180.315 217.64 180.596 216.896 180.158L181.552 159.758C181.166 159.515 180.842 159.185 180.607 158.795C180.371 158.404 180.23 157.963 180.196 157.508C180.196 156.696 180.821 156.39 181.552 156.821L216.927 177.246C217.312 177.49 217.634 177.821 217.867 178.213C218.099 178.606 218.236 179.047 218.265 179.502V179.502Z"
        fill="#DDDDDD" />
    <path
        d="M175.121 154.046C175.121 154.858 174.496 155.133 173.752 154.671L152.246 142.302C151.86 142.06 151.536 141.73 151.301 141.339C151.067 140.948 150.928 140.507 150.896 140.052C150.896 139.239 151.521 138.933 152.246 139.364L173.759 151.789C174.149 152.03 174.476 152.36 174.713 152.752C174.95 153.145 175.09 153.588 175.121 154.046V154.046Z"
        fill="#8566F2" />
    <path
        d="M175.121 154.046C175.121 154.858 174.496 155.133 173.752 154.671L152.246 142.302C151.86 142.06 151.536 141.73 151.301 141.339C151.067 140.948 150.928 140.507 150.896 140.052C150.896 139.239 151.521 138.933 152.246 139.364L173.759 151.789C174.149 152.03 174.476 152.36 174.713 152.752C174.95 153.145 175.09 153.588 175.121 154.046V154.046Z"
        fill="#DDDDDD" />
    <path
        d="M177.658 158.733C177.741 158.733 177.821 158.7 177.879 158.642C177.938 158.583 177.971 158.503 177.971 158.421V152.558C177.971 152.475 177.938 152.396 177.879 152.337C177.821 152.279 177.741 152.246 177.658 152.246C177.575 152.246 177.496 152.279 177.437 152.337C177.379 152.396 177.346 152.475 177.346 152.558V158.421C177.346 158.503 177.379 158.583 177.437 158.642C177.496 158.7 177.575 158.733 177.658 158.733Z"
        fill="#8566F2" />
    <path
        d="M250.346 203.761C250.449 203.762 250.55 203.729 250.633 203.666C250.715 203.603 250.775 203.515 250.802 203.415C250.829 203.315 250.822 203.209 250.783 203.114C250.743 203.018 250.673 202.938 250.583 202.886L151.402 145.624C151.295 145.568 151.171 145.555 151.055 145.588C150.939 145.62 150.84 145.696 150.777 145.799C150.72 145.905 150.706 146.03 150.739 146.146C150.772 146.263 150.848 146.362 150.952 146.424L250.115 203.699C250.185 203.74 250.265 203.762 250.346 203.761V203.761Z"
        fill="#E0E0E0" />
    <path
        d="M250.346 206.693C250.449 206.694 250.55 206.66 250.633 206.598C250.715 206.535 250.775 206.447 250.802 206.347C250.829 206.247 250.822 206.141 250.783 206.045C250.743 205.95 250.673 205.87 250.583 205.818L151.402 148.562C151.349 148.523 151.289 148.496 151.224 148.483C151.16 148.469 151.094 148.469 151.03 148.482C150.966 148.496 150.905 148.523 150.852 148.561C150.799 148.599 150.754 148.649 150.721 148.705C150.688 148.762 150.668 148.825 150.66 148.89C150.653 148.955 150.66 149.021 150.68 149.084C150.7 149.146 150.733 149.204 150.777 149.253C150.82 149.302 150.874 149.341 150.933 149.368L250.115 206.631C250.185 206.672 250.265 206.694 250.346 206.693V206.693Z"
        fill="#E0E0E0" />
    <path
        d="M250.346 209.643C250.449 209.644 250.55 209.61 250.633 209.548C250.715 209.485 250.775 209.397 250.802 209.297C250.829 209.197 250.822 209.091 250.783 208.995C250.743 208.9 250.673 208.82 250.583 208.768L151.402 151.518C151.296 151.46 151.172 151.446 151.056 151.477C150.939 151.509 150.84 151.584 150.777 151.687C150.722 151.794 150.709 151.918 150.741 152.034C150.774 152.15 150.849 152.249 150.952 152.312L250.115 209.562C250.183 209.61 250.263 209.638 250.346 209.643V209.643Z"
        fill="#E0E0E0" />
    <path
        d="M250.346 212.556C250.428 212.556 250.509 212.535 250.58 212.494C250.651 212.454 250.711 212.395 250.752 212.324C250.812 212.219 250.827 212.094 250.796 211.977C250.764 211.861 250.688 211.761 250.584 211.699L151.402 154.437C151.296 154.379 151.172 154.365 151.056 154.396C150.94 154.428 150.84 154.503 150.777 154.606C150.722 154.713 150.709 154.837 150.741 154.953C150.774 155.069 150.849 155.168 150.952 155.231L250.115 212.493C250.185 212.535 250.265 212.556 250.346 212.556V212.556Z"
        fill="#E0E0E0" />
    <path
        d="M250.346 215.493C250.429 215.492 250.509 215.47 250.581 215.428C250.652 215.386 250.711 215.327 250.752 215.255C250.812 215.15 250.827 215.025 250.796 214.908C250.764 214.792 250.688 214.692 250.584 214.63L151.402 157.368C151.349 157.337 151.29 157.317 151.229 157.309C151.168 157.301 151.106 157.305 151.046 157.321C150.987 157.337 150.931 157.365 150.882 157.402C150.833 157.44 150.792 157.486 150.762 157.54C150.731 157.593 150.711 157.652 150.703 157.713C150.695 157.774 150.699 157.836 150.715 157.896C150.731 157.955 150.758 158.011 150.796 158.06C150.833 158.109 150.88 158.15 150.934 158.18L250.115 215.43C250.186 215.469 250.265 215.491 250.346 215.493V215.493Z"
        fill="#E0E0E0" />
    <g filter="url(#filter0_d_2004_1744)">
        <path
            d="M89.4924 182.086C90.0174 181.548 90.1861 180.667 89.8799 179.586C89.4739 178.408 88.7969 177.341 87.9035 176.473C87.0101 175.605 85.9252 174.958 84.7362 174.586C83.6299 174.304 82.7487 174.498 82.2362 175.036L50.8487 204.754C50.0299 205.492 49.7424 206.761 50.2237 208.379C51.0924 211.454 54.3049 214.592 57.4049 215.379C59.0299 215.792 60.2986 215.473 61.0111 214.636L89.4924 182.086Z"
            fill="#8566F2" />
        <path opacity="0.15"
            d="M89.4924 182.086C90.0174 181.548 90.1861 180.667 89.8799 179.586C89.4739 178.408 88.7969 177.341 87.9035 176.473C87.0101 175.605 85.9252 174.958 84.7362 174.586C83.6299 174.304 82.7487 174.498 82.2362 175.036L50.8487 204.754C50.0299 205.492 49.7424 206.761 50.2237 208.379C51.0924 211.454 54.3049 214.592 57.4049 215.379C59.0299 215.792 60.2986 215.473 61.0111 214.636L89.4924 182.086Z"
            fill="#8566F2" />
        <path
            d="M84.7612 174.554C82.5487 173.992 81.2487 175.323 81.8737 177.523C82.2782 178.701 82.9539 179.767 83.8463 180.635C84.7388 181.504 85.8229 182.151 87.0112 182.523C89.23 183.085 90.5237 181.754 89.905 179.554C89.499 178.376 88.822 177.31 87.9286 176.442C87.0351 175.573 85.9502 174.927 84.7612 174.554Z"
            fill="#8566F2" />
        <g opacity="0.25">
            <path opacity="0.25"
                d="M84.7612 174.554C82.5487 173.992 81.2487 175.323 81.8737 177.523C82.2782 178.701 82.9539 179.767 83.8463 180.635C84.7388 181.504 85.8229 182.151 87.0112 182.523C89.23 183.085 90.5237 181.754 89.905 179.554C89.499 178.376 88.822 177.31 87.9286 176.442C87.0351 175.573 85.9502 174.927 84.7612 174.554Z"
                fill="#5761D7" />
        </g>
        <path
            d="M98.3172 168.929C98.073 168.213 97.6624 167.566 97.1191 167.04C96.5758 166.514 95.9154 166.124 95.1922 165.904C94.9381 165.809 94.6633 165.784 94.3962 165.831C94.1291 165.878 93.8796 165.996 93.6735 166.172L83.6735 176.404C83.5023 176.614 83.3905 176.866 83.3498 177.135C83.3092 177.403 83.3411 177.677 83.4422 177.929C83.6864 178.644 84.097 179.292 84.6403 179.818C85.1836 180.343 85.844 180.733 86.5672 180.954C86.8213 181.049 87.0962 181.074 87.3633 181.026C87.6303 180.979 87.8799 180.861 88.086 180.685L98.086 170.454C98.2572 170.243 98.3689 169.991 98.4096 169.723C98.4503 169.454 98.4184 169.18 98.3172 168.929V168.929Z"
            fill="#252532" />
        <path
            d="M95.211 165.904C95.3905 165.95 95.5661 166.011 95.736 166.085L95.8172 166.129C95.9668 166.199 96.1129 166.276 96.2547 166.36H96.286C97.2401 166.944 97.959 167.844 98.3172 168.904C98.4184 169.156 98.4503 169.43 98.4096 169.698C98.3689 169.966 98.2572 170.219 98.086 170.429L95.6922 172.879C94.8275 172.313 94.0214 171.662 93.286 170.935L84.4485 179.567C83.9949 179.097 83.6568 178.527 83.461 177.904C83.3599 177.652 83.328 177.378 83.3686 177.11C83.4093 176.842 83.521 176.589 83.6923 176.379V176.379L93.6922 166.148C93.9008 165.976 94.1515 165.862 94.4185 165.819C94.6855 165.777 94.959 165.806 95.211 165.904Z"
            fill="#444444" />
        <path
            d="M82.873 179.492L51.1918 210.46C50.7737 209.795 50.4478 209.076 50.223 208.323C49.7668 206.71 50.0543 205.435 50.8793 204.698L82.2543 174.979C81.7293 175.523 81.5668 176.398 81.873 177.479C82.0912 178.201 82.4293 178.881 82.873 179.492V179.492Z"
            fill="#8566F2" />
        <path
            d="M128.005 187.061C122.943 189.986 115.943 189.561 108.205 185.098C92.7426 176.167 80.2051 154.473 80.2051 136.598C80.2051 127.673 83.3301 121.398 88.4051 118.473L94.0926 115.179C99.1613 112.248 106.161 112.679 113.893 117.136C129.355 126.067 141.893 147.761 141.893 165.636C141.893 174.567 138.768 180.842 133.693 183.761L128.005 187.054V187.061ZM84.0364 136.598C84.0364 144.573 86.7676 153.692 91.7239 162.279C96.6801 170.867 103.243 177.792 110.118 181.779C116.368 185.386 122.03 186.086 126.086 183.742C130.143 181.398 132.374 176.142 132.374 168.929C132.374 160.954 129.643 151.836 124.686 143.248C119.73 134.661 113.193 127.736 106.286 123.748C100.036 120.142 94.3739 119.448 90.3176 121.786C86.2614 124.123 84.0364 129.386 84.0364 136.598V136.598Z"
            fill="#8566F2" />
        <path opacity="0.3"
            d="M108.205 120.429C123.674 129.36 136.205 151.054 136.205 168.929C136.205 186.804 123.674 194.023 108.205 185.098C92.7363 176.173 80.2051 154.473 80.2051 136.598C80.2051 118.723 92.7426 111.504 108.205 120.429ZM90.3238 121.785C86.2676 124.129 84.0363 129.385 84.0363 136.598C84.0363 144.573 86.7676 153.692 91.7239 162.279C96.6801 170.867 103.243 177.792 110.118 181.779C116.368 185.385 122.03 186.079 126.086 183.742C130.143 181.404 132.374 176.142 132.374 168.929C132.374 160.954 129.643 151.835 124.686 143.248C119.73 134.66 113.193 127.735 106.286 123.748C100.049 120.117 94.3738 119.448 90.3238 121.785Z"
            fill="#8566F2" />
        <path opacity="0.1"
            d="M136.205 168.929C136.205 157.204 130.805 143.829 122.724 133.492L122.793 133.573L128.461 130.286C136.511 140.604 141.893 153.948 141.893 165.636C141.893 174.567 138.768 180.842 133.693 183.761L128.011 187.054L127.705 187.223C132.949 184.379 136.205 178.029 136.205 168.929Z"
            fill="#5761D7" />
        <path
            d="M90.3172 121.785C91.972 120.857 93.8452 120.389 95.7422 120.429C94.1734 123.148 93.3484 126.817 93.3547 131.21C93.3547 139.179 96.0797 148.304 101.036 156.898C105.992 165.492 112.548 172.404 119.455 176.367C123.255 178.567 126.848 179.685 129.992 179.698C129.073 181.362 127.727 182.752 126.092 183.723C122.036 186.067 116.367 185.367 110.117 181.76C103.242 177.773 96.6797 170.848 91.7234 162.267C86.7672 153.685 84.0359 144.548 84.0359 136.579C84.0297 129.385 86.2672 124.123 90.3172 121.785Z"
            fill="#8566F2" />
        <path opacity="0.1"
            d="M90.3172 121.785C91.972 120.857 93.8452 120.389 95.7422 120.429C94.1734 123.148 93.3484 126.817 93.3547 131.21C93.3547 139.179 96.0797 148.304 101.036 156.898C105.992 165.492 112.548 172.404 119.455 176.367C123.255 178.567 126.848 179.685 129.992 179.698C129.073 181.362 127.727 182.752 126.092 183.723C122.036 186.067 116.367 185.367 110.117 181.76C103.242 177.773 96.6797 170.848 91.7234 162.267C86.7672 153.685 84.0359 144.548 84.0359 136.579C84.0297 129.385 86.2672 124.123 90.3172 121.785Z"
            fill="#5761D7" />
        <path opacity="0.1"
            d="M88.2426 134.155C88.2426 142.13 90.9738 151.255 95.9301 159.842C100.886 168.43 107.424 175.355 114.33 179.342C119.48 182.317 124.243 183.305 128.024 182.242C130.836 179.498 132.361 174.88 132.361 168.93C132.361 160.955 129.63 151.836 124.674 143.248C119.718 134.661 113.18 127.736 106.274 123.748C101.118 120.773 96.3613 119.786 92.5738 120.842C89.7863 123.592 88.2426 128.205 88.2426 134.155Z"
            fill="white" />
        <path opacity="0.1"
            d="M87.4803 119.054L87.149 119.298L87.6865 118.917L87.9053 118.767L87.6303 118.948L87.4803 119.054Z"
            fill="#5761D7" />
        <path opacity="0.1"
            d="M87.0429 119.373C86.9596 119.432 86.8802 119.497 86.8055 119.567L87.1367 119.311L87.0429 119.373Z"
            fill="#5761D7" />
        <path opacity="0.1"
            d="M85.5863 120.648L86.0801 120.179C85.9721 120.269 85.8699 120.365 85.7738 120.467L85.5863 120.648Z"
            fill="#5761D7" />
    </g>
    <path
        d="M115.717 104.044C115.972 101.845 113.768 101.476 113.925 100.117C113.993 99.5366 114.316 99.4282 114.692 99.6638C115.102 99.9193 115.293 100.427 115.269 100.847L115.99 101.264C116.052 100.201 115.584 99.2837 114.823 98.8437C114.011 98.374 113.38 98.7112 113.258 99.7676C113.002 101.984 115.222 102.261 115.053 103.716C114.994 104.227 114.694 104.45 114.236 104.186C113.784 103.924 113.602 103.394 113.63 102.884L112.932 102.48C112.809 103.545 113.345 104.557 114.14 105.017C115.027 105.53 115.613 104.945 115.717 104.044Z"
        fill="#8566F2" />
    <path
        d="M118.081 102.945C118.567 103.226 118.897 103.915 118.823 104.658L117.078 103.649C117.234 102.935 117.641 102.69 118.081 102.945ZM119.257 106.396L118.553 105.989C118.39 106.292 118.133 106.457 117.732 106.226C117.252 105.948 116.935 105.257 116.98 104.442L119.389 105.835C119.425 105.68 119.449 105.528 119.468 105.363C119.63 103.96 119.104 102.649 118.206 102.13C117.273 101.591 116.522 102.181 116.348 103.68C116.175 105.178 116.732 106.534 117.636 107.057C118.408 107.504 118.983 107.125 119.257 106.396Z"
        fill="#8566F2" />
    <path
        d="M119.881 105.704C119.711 107.176 120.251 108.569 121.069 109.042C121.596 109.347 122.017 109.184 122.265 108.893L122.182 109.603L122.84 109.983L123.392 105.212L122.734 104.832L122.654 105.524C122.505 105.022 122.183 104.43 121.651 104.122C120.821 103.642 120.051 104.232 119.881 105.704ZM122.459 107.213C122.34 108.243 121.809 108.556 121.317 108.271C120.831 107.99 120.431 107.121 120.55 106.091C120.669 105.06 121.203 104.777 121.689 105.059C122.181 105.343 122.577 106.191 122.459 107.213Z"
        fill="#8566F2" />
    <path
        d="M124.639 108.345C124.756 107.331 125.089 107.2 125.569 107.478L125.735 107.574L125.854 106.552C125.407 106.294 125.059 106.407 124.821 106.777L124.901 106.084L124.249 105.707L123.697 110.479L124.349 110.856L124.639 108.345Z"
        fill="#8566F2" />
    <path
        d="M125.951 109.232C125.778 110.731 126.307 112.071 127.21 112.593C127.983 113.04 128.561 112.682 128.847 111.849L128.143 111.442C127.966 111.866 127.696 111.987 127.307 111.762C126.78 111.458 126.499 110.667 126.621 109.62C126.741 108.58 127.158 108.193 127.684 108.498C128.073 108.723 128.291 109.163 128.346 109.684L129.05 110.091C128.989 108.984 128.552 108.113 127.78 107.666C126.876 107.144 126.123 107.743 125.951 109.232Z"
        fill="#8566F2" />
    <path
        d="M129.322 113.732L129.974 114.109L130.283 111.442C130.384 110.567 130.751 110.299 131.231 110.577C131.706 110.851 131.968 111.483 131.867 112.358L131.559 115.025L132.205 115.399L132.531 112.585C132.685 111.251 132.217 110.232 131.513 109.825C131.107 109.59 130.725 109.619 130.462 109.892L130.715 107.701L130.063 107.324L129.322 113.732Z"
        fill="#8566F2" />
    <g filter="url(#filter1_d_2004_1744)">
        <path
            d="M250.041 99.9946L252.835 94.7384L250.585 88.2509V84.2759L257.46 88.2509V92.2196L254.504 97.3446C254.457 97.4236 254.387 97.4867 254.304 97.5259V97.5259L250.041 99.9946Z"
            fill="#8566F2" />
        <path opacity="0.3"
            d="M250.041 99.9946L252.835 94.7384L250.585 88.2509V84.2759L257.46 88.2509V92.2196L254.504 97.3446C254.457 97.4236 254.387 97.4867 254.304 97.5259V97.5259L250.041 99.9946Z"
            fill="#5761D7" />
        <path
            d="M235.379 51.8073C235.417 51.0912 235.624 50.3944 235.983 49.7732C236.341 49.1521 236.841 48.6242 237.441 48.2323L239.122 47.2635C239.762 46.94 240.468 46.7715 241.185 46.7715C241.902 46.7715 242.608 46.94 243.247 47.2635L267.96 61.5073C268.561 61.8992 269.06 62.4271 269.419 63.0482C269.777 63.6694 269.984 64.3662 270.022 65.0823V95.3635C269.984 96.0796 269.777 96.7764 269.419 97.3976C269.06 98.0187 268.561 98.5466 267.96 98.9385L266.279 99.9073C265.639 100.231 264.933 100.399 264.216 100.399C263.5 100.399 262.793 100.231 262.154 99.9073L253.147 94.726L250.197 99.8448C250.155 99.9174 250.092 99.9764 250.017 100.015C249.942 100.053 249.858 100.069 249.774 100.061C249.69 100.054 249.61 100.022 249.543 99.9703C249.477 99.9187 249.426 99.8491 249.397 99.7698L246.272 90.7635L237.435 85.6698C236.834 85.2779 236.335 84.75 235.976 84.1288C235.618 83.5077 235.411 82.8108 235.372 82.0948L235.379 51.8073Z"
            fill="#8566F2" />
        <path
            d="M251.677 72.9696C252.178 72.9751 252.671 72.8441 253.105 72.5901C253.629 72.2331 254.048 71.7381 254.319 71.1573C254.59 70.5765 254.703 69.9316 254.645 69.2908C254.577 67.7879 254.158 66.3237 253.422 65.0207C252.687 63.7177 251.657 62.6137 250.419 61.8012V61.8012C249.922 61.3951 249.316 61.152 248.682 61.1037C248.047 61.0553 247.413 61.2039 246.862 61.5301C246.312 61.8562 245.87 62.3447 245.595 62.9317C245.32 63.5187 245.225 64.1769 245.322 64.8201C245.392 66.3226 245.812 67.7863 246.547 69.0891C247.282 70.3919 248.311 71.4962 249.548 72.3097C250.188 72.7184 250.923 72.9461 251.677 72.9696V72.9696Z"
            fill="white" />
        <path
            d="M243.844 72.896C245.287 72.04 247.131 72.1867 249.023 73.2954L251.163 74.5508C253.104 75.8171 254.718 77.5379 255.87 79.569C257.022 81.6 257.679 83.8823 257.785 86.2246V88.4827C255.685 89.6647 252.823 89.4609 249.656 87.6104C246.276 85.4655 243.483 82.4877 241.535 78.9529V77.8606C241.535 75.5617 242.369 73.7601 243.844 72.896Z"
            fill="white" />
        <path opacity="0.3"
            d="M270.023 95.3632C269.984 96.0792 269.777 96.7761 269.419 97.3972C269.06 98.0184 268.561 98.5463 267.96 98.9382L266.279 99.9069C265.701 100.197 265.068 100.362 264.422 100.391C263.776 100.42 263.131 100.313 262.529 100.076C263.498 100.438 264.235 99.8944 264.235 98.7194V68.9944C264.235 67.7882 264.285 66.9007 263.91 66.2507L269.441 63.0444C269.818 63.6599 270.033 64.3609 270.066 65.0819L270.023 95.3632Z"
            fill="#252532" />
        <path opacity="0.3"
            d="M235.447 51.2196C235.685 50.3446 236.485 50.0633 237.441 50.5946L262.16 64.8446C262.845 65.1533 263.439 65.6333 263.885 66.2383L269.416 63.0321C269.071 62.4027 268.569 61.8732 267.96 61.4946L243.254 47.2446C242.613 46.921 241.905 46.7524 241.188 46.7524C240.47 46.7524 239.763 46.921 239.122 47.2446L237.441 48.2196C236.921 48.5565 236.476 48.9966 236.133 49.5126C235.79 50.0287 235.556 50.6096 235.447 51.2196V51.2196Z"
            fill="white" />
    </g>
    <defs>
        <filter id="filter0_d_2004_1744" x="-0.00976562" y="67.3145" width="191.902"
            height="202.245" filterUnits="userSpaceOnUse" color-interpolation-filters="sRGB">
            <feFlood flood-opacity="0" result="BackgroundImageFix" />
            <feColorMatrix in="SourceAlpha" type="matrix"
                values="0 0 0 0 0 0 0 0 0 0 0 0 0 0 0 0 0 0 127 0" result="hardAlpha" />
            <feOffset dy="4" />
            <feGaussianBlur stdDeviation="25" />
            <feComposite in2="hardAlpha" operator="out" />
            <feColorMatrix type="matrix"
                values="0 0 0 0 0.521569 0 0 0 0 0.4 0 0 0 0 0.94902 0 0 0 1 0" />
            <feBlend mode="normal" in2="BackgroundImageFix" result="effect1_dropShadow_2004_1744" />
            <feBlend mode="normal" in="SourceGraphic" in2="effect1_dropShadow_2004_1744"
                result="shape" />
        </filter>
        <filter id="filter1_d_2004_1744" x="185.372" y="0.752441" width="134.694" height="153.647"
            filterUnits="userSpaceOnUse" color-interpolation-filters="sRGB">
            <feFlood flood-opacity="0" result="BackgroundImageFix" />
            <feColorMatrix in="SourceAlpha" type="matrix"
                values="0 0 0 0 0 0 0 0 0 0 0 0 0 0 0 0 0 0 127 0" result="hardAlpha" />
            <feOffset dy="4" />
            <feGaussianBlur stdDeviation="25" />
            <feComposite in2="hardAlpha" operator="out" />
            <feColorMatrix type="matrix"
                values="0 0 0 0 0.819608 0 0 0 0 0.301961 0 0 0 0 0.945098 0 0 0 1 0" />
            <feBlend mode="normal" in2="BackgroundImageFix" result="effect1_dropShadow_2004_1744" />
            <feBlend mode="normal" in="SourceGraphic" in2="effect1_dropShadow_2004_1744"
                result="shape" />
        </filter>
    </defs>
</svg>
    