<svg width="95" height="121" viewBox="0 0 95 121" fill="none" xmlns="http://www.w3.org/2000/svg">
    <path
        d="M80.0223 1.01678L20.6667 35.346C19.4993 36.0209 18.5508 37.6626 18.5508 40.8182V113.38C18.5508 112.906 19.4993 114.529 20.6849 115.204L29.1122 120.002C29.7726 120.329 30.4999 120.5 31.2372 120.5C31.9746 120.5 32.7019 120.329 33.3623 120.002L92.6997 85.6724C93.3128 85.2719 93.8236 84.7332 94.1911 84.0997C94.5585 83.4662 94.7724 82.7554 94.8156 82.0242V9.44403C94.7782 8.71156 94.5667 7.99855 94.1987 7.36411C93.8308 6.72967 93.3169 6.19207 92.6997 5.79587L84.2724 0.998536C83.6106 0.673514 82.8826 0.506035 82.1453 0.509199C81.4079 0.512364 80.6813 0.686086 80.0223 1.01678Z"
        fill="#33C267" />
    <path opacity="0.2"
        d="M33.3627 119.91C32.7 120.23 31.9735 120.396 31.2376 120.396C30.5017 120.396 29.7753 120.23 29.1126 119.91L20.6853 115.113C19.4997 114.456 18.5512 112.815 18.5512 113.289V40.8364C18.3748 39.4732 18.6098 38.0885 19.2261 36.8599L31.8669 44.1562C31.4656 44.8129 31.2285 45.5607 31.2285 44.4116V116.919C31.2467 119.91 32.1041 120.695 33.3627 119.91Z"
        fill="black" />
    <path opacity="0.5"
        d="M94.7989 9.06089C94.6348 7.98469 93.7592 7.60163 92.7012 8.22182L33.3639 42.551C32.7384 42.9441 32.2236 43.4903 31.8681 44.138L19.209 36.8417C19.5628 36.2241 20.0642 35.7039 20.6683 35.3277L80.0239 0.998452C80.6843 0.670599 81.4116 0.5 82.1489 0.5C82.8862 0.5 83.6136 0.670599 84.274 0.998452L92.683 5.79579C93.2505 6.15499 93.7335 6.63284 94.0988 7.19647C94.464 7.76011 94.7029 8.39616 94.7989 9.06089Z"
        fill="white" />
    <path
        d="M12.7504 92.8043C11.4188 92.02 1.277 86.2923 0.948662 86.1099C0.698295 85.9581 0.484904 85.7524 0.324028 85.5078C0.163151 85.2632 0.0588244 84.9858 0.018641 84.6957C-0.0215425 84.4057 0.0034282 84.1104 0.0917311 83.8312C0.180034 83.5521 0.32944 83.2961 0.529103 83.0819L18.4781 62.4333L31.1554 69.7297L12.3127 89.7946C12.1232 90.0125 11.9831 90.2687 11.9017 90.5457C11.8204 90.8228 11.7998 91.1141 11.8413 91.3998C11.8829 91.6856 11.9856 91.959 12.1425 92.2013C12.2994 92.4437 12.5068 92.6494 12.7504 92.8043Z"
        fill="#33C267" />
    <path opacity="0.5"
        d="M12.7504 92.8043C11.4188 92.02 1.277 86.2923 0.948662 86.1099C0.698295 85.9581 0.484904 85.7524 0.324028 85.5078C0.163151 85.2632 0.0588244 84.9858 0.018641 84.6957C-0.0215425 84.4057 0.0034282 84.1104 0.0917311 83.8312C0.180034 83.5521 0.32944 83.2961 0.529103 83.0819L18.4781 62.4333L31.1554 69.7297L12.3127 89.7946C12.1232 90.0125 11.9831 90.2687 11.9017 90.5457C11.8204 90.8228 11.7998 91.1141 11.8413 91.3998C11.8829 91.6856 11.9856 91.959 12.1425 92.2013C12.2994 92.4437 12.5068 92.6494 12.7504 92.8043Z"
        fill="white" />
    <path
        d="M92.6995 8.22192L33.3621 42.5511C32.749 42.9517 32.2382 43.4903 31.8708 44.1238C31.5033 44.7574 31.2894 45.4682 31.2462 46.1993V69.7117L12.3852 89.7766C12.0859 90.0162 11.8698 90.344 11.7674 90.7135C11.665 91.0829 11.6817 91.4752 11.8149 91.8347C11.9482 92.1941 12.1914 92.5024 12.5099 92.7158C12.8284 92.9292 13.206 93.0369 13.5891 93.0235L31.2279 91.7466V118.743C31.2279 120.093 32.1765 120.567 33.3439 119.965L92.6812 85.6359C93.2944 85.2354 93.8052 84.6968 94.1727 84.0632C94.5401 83.4297 94.754 82.7189 94.7972 81.9878V9.44405C94.8154 8.09423 93.8669 7.54701 92.6995 8.22192Z"
        fill="#33C267" />
    <path
        d="M82.1972 31.384C80.9655 30.8746 79.5826 30.8719 78.3489 31.3764C77.1153 31.881 76.1306 32.852 75.6089 34.0784L56.7134 79.2574L52.1764 74.8595C51.1997 74.0723 49.9639 73.679 48.712 73.7568C47.46 73.8347 46.2825 74.3781 45.4109 75.2802C44.5393 76.1823 44.0367 77.3778 44.0019 78.6317C43.9672 79.8856 44.4028 81.1071 45.2231 82.0561L54.975 91.5995C55.5655 92.1682 56.2865 92.5832 57.0748 92.808C57.8632 93.0328 58.6947 93.0607 59.4963 92.889C60.2979 92.7174 61.045 92.3515 61.6721 91.8236C62.2993 91.2956 62.7872 90.6218 63.093 89.8612L84.8742 37.9723C85.3894 36.7433 85.3969 35.3603 84.8953 34.1257C84.3936 32.8911 83.4236 31.9054 82.1972 31.384Z"
        fill="#FAFAFA" />
</svg>
    