<svg width="20" height="20" viewBox="0 0 20 20" fill="none" xmlns="http://www.w3.org/2000/svg">
    <path
        d="M4.42517 4.54099C4.06711 3.9619 4.27961 3.22138 4.89984 2.88701L9.95329 0.16266C10.5735 -0.171686 11.3666 0.0267243 11.7246 0.605843C12.0827 1.18499 11.8702 1.92552 11.25 2.25986L6.19655 4.98423C5.57635 5.31854 4.78328 5.12011 4.42517 4.54099Z"
        fill="#37D5C7" />
    <path
        d="M7.99426 19.3945C7.63622 18.8154 7.84866 18.0749 8.46886 17.7405L13.5224 15.0162C14.1426 14.6818 14.9356 14.8803 15.2937 15.4594C15.6518 16.0385 15.4393 16.779 14.8191 17.1134L9.7656 19.8377C9.14536 20.1721 8.35236 19.9736 7.99426 19.3945Z"
        fill="#37D5C7" />
    <path
        d="M10.5614 9.62171C10.2033 9.04259 10.4158 8.30206 11.036 7.96772L18.0547 4.18389C18.6749 3.84955 19.4679 4.04799 19.826 4.6271C20.1841 5.20625 19.9716 5.94678 19.3514 6.28109L12.3327 10.0649C11.7125 10.3993 10.9194 10.2009 10.5614 9.62171Z"
        fill="#37D5C7" />
    <path
        d="M0.173907 15.2221C-0.184172 14.6429 0.0283281 13.9024 0.648538 13.568L8.22873 9.48152C8.84893 9.14715 9.64203 9.34558 10.0001 9.9247C10.3582 10.5038 10.1457 11.2444 9.52543 11.5787L1.94526 15.6652C1.32505 15.9995 0.531988 15.8012 0.173907 15.2221Z"
        fill="#37D5C7" />
    <path
        d="M11.7042 4.81125C11.3461 4.2321 11.5586 3.49158 12.1788 3.15724L13.5826 2.40046C14.2028 2.06609 14.9959 2.26453 15.3539 2.84365C15.712 3.42277 15.4995 4.16329 14.8793 4.49763L13.4755 5.25443C12.8553 5.5888 12.0622 5.39037 11.7042 4.81125Z"
        fill="#37D5C7" />
    <path
        d="M15.8549 15.1564C15.4968 14.5773 15.7093 13.8368 16.3295 13.5024L17.7333 12.7457C18.3535 12.4113 19.1466 12.6097 19.5046 13.1888C19.8627 13.768 19.6502 14.5085 19.03 14.8429L17.6263 15.5996C17.0061 15.934 16.2129 15.7356 15.8549 15.1564Z"
        fill="#37D5C7" />
    <path
        d="M4.08426 17.3083C3.72619 16.7292 3.93869 15.9887 4.55889 15.6543L5.96263 14.8976C6.58283 14.5632 7.3759 14.7616 7.73394 15.3407C8.09207 15.9199 7.87954 16.6604 7.25933 16.9947L5.8556 17.7515C5.23539 18.0858 4.44232 17.8874 4.08426 17.3083Z"
        fill="#37D5C7" />
    <path
        d="M0.213993 6.81119C-0.144085 6.23207 0.0684139 5.49161 0.68863 5.1572L2.09236 4.40046C2.71257 4.06609 3.50562 4.26453 3.86372 4.84368C4.22179 5.4228 4.00929 6.16332 3.38908 6.49766L1.98534 7.25443C1.36514 7.58877 0.572069 7.39034 0.213993 6.81119Z"
        fill="#37D5C7" />
    <path
        d="M0.19342 11.0169C-0.164659 10.4377 0.0478405 9.69724 0.668052 9.36287L9.37125 4.67095C9.99146 4.33661 10.7845 4.53505 11.1426 5.1141C11.5006 5.69325 11.2882 6.43378 10.668 6.76818L1.96477 11.4601C1.34456 11.7944 0.551502 11.596 0.19342 11.0169Z"
        fill="#37D5C7" />
    <path
        d="M8.29553 15.0379C7.93746 14.4588 8.14999 13.7182 8.77019 13.3838L17.4734 8.69192C18.0935 8.35762 18.8866 8.55605 19.2447 9.13517C19.6028 9.71423 19.3902 10.4548 18.7701 10.7892L10.0669 15.4811C9.4467 15.8154 8.65363 15.617 8.29553 15.0379Z"
        fill="#37D5C7" />
</svg>
    