<svg width="25" height="24" viewBox="0 0 25 24" fill="none" xmlns="http://www.w3.org/2000/svg">
    <path
        d="M7.83932 6.79335C7.52076 6.24105 7.7098 5.53477 8.26157 5.21588L12.7573 2.61755C13.3091 2.29866 14.0146 2.48791 14.3331 3.04024C14.6517 3.59259 14.4627 4.29886 13.9109 4.61775L9.41517 7.2161C8.86341 7.53495 8.15787 7.3457 7.83932 6.79335Z"
        fill="white" />
    <path
        d="M11.0145 20.9599C10.696 20.4075 10.8849 19.7013 11.4367 19.3824L15.9325 16.7841C16.4842 16.4652 17.1897 16.6544 17.5083 17.2068C17.8269 17.7591 17.6378 18.4654 17.0861 18.7842L12.5903 21.3826C12.0385 21.7015 11.3331 21.5122 11.0145 20.9599Z"
        fill="white" />
    <path
        d="M13.2983 11.6393C12.9797 11.087 13.1688 10.3807 13.7206 10.0618L19.9646 6.453C20.5164 6.13411 21.2219 6.32336 21.5405 6.87571C21.859 7.42805 21.67 8.13434 21.1182 8.4532L14.8742 12.062C14.3224 12.3809 13.6168 12.1916 13.2983 11.6393Z"
        fill="white" />
    <path
        d="M4.05721 16.98C3.73865 16.4277 3.9277 15.7214 4.47946 15.4025L11.223 11.505C11.7748 11.1861 12.4804 11.3754 12.7989 11.9277C13.1175 12.48 12.9284 13.1863 12.3766 13.5052L5.63306 17.4027C5.0813 17.7216 4.37577 17.5324 4.05721 16.98Z"
        fill="white" />
    <path
        d="M14.315 7.05111C13.9965 6.49875 14.1855 5.79248 14.7373 5.47359L15.9861 4.75183C16.5379 4.43294 17.2434 4.62219 17.5619 5.17452C17.8805 5.72686 17.6915 6.43313 17.1397 6.752L15.8909 7.47378C15.3391 7.79271 14.6336 7.60345 14.315 7.05111Z"
        fill="white" />
    <path
        d="M18.0077 16.9178C17.6891 16.3654 17.8781 15.6592 18.4299 15.3403L19.6787 14.6185C20.2305 14.2997 20.936 14.4889 21.2546 15.0412C21.5731 15.5935 21.3841 16.2998 20.8323 16.6188L19.5835 17.3405C19.0317 17.6594 18.3262 17.4701 18.0077 16.9178Z"
        fill="white" />
    <path
        d="M7.53609 18.97C7.21754 18.4177 7.40658 17.7114 7.95834 17.3925L9.20715 16.6708C9.75891 16.3519 10.4644 16.5411 10.783 17.0935C11.1016 17.6458 10.9125 18.3521 10.3607 18.671L9.11195 19.3927C8.56019 19.7116 7.85465 19.5223 7.53609 18.97Z"
        fill="white" />
    <path
        d="M4.09298 8.95854C3.77442 8.40619 3.96347 7.69998 4.51523 7.38105L5.76404 6.6593C6.3158 6.34041 7.02133 6.52965 7.33989 7.08201C7.65845 7.63435 7.4694 8.34064 6.91764 8.6595L5.66883 9.38128C5.11707 9.70014 4.41154 9.51088 4.09298 8.95854Z"
        fill="white" />
    <path
        d="M4.07479 12.9695C3.75623 12.4171 3.94528 11.7109 4.49704 11.392L12.2397 6.9171C12.7915 6.59822 13.4969 6.7875 13.8155 7.33977C14.1341 7.89212 13.9451 8.5984 13.3933 8.91733L5.65064 13.3922C5.09888 13.7111 4.39335 13.5218 4.07479 12.9695Z"
        fill="white" />
    <path
        d="M11.2825 16.8047C10.964 16.2524 11.1531 15.5461 11.7048 15.2272L19.4475 10.7523C19.9992 10.4334 20.7047 10.6227 21.0233 11.175C21.3418 11.7273 21.1528 12.4336 20.6011 12.7525L12.8584 17.2274C12.3067 17.5463 11.6011 17.357 11.2825 16.8047Z"
        fill="white" />
</svg>